<svg id="shortcut" xmlns="http://www.w3.org/2000/svg" xmlns:xlink="http://www.w3.org/1999/xlink" viewBox="0 0 71 80"><defs><clipPath id="clip-path"><rect width="71" height="80" fill="none"/></clipPath></defs><title>1</title><g clip-path="url(#clip-path)"><path d="M32.16,39.42h0c.32-.2.65-.4,1-.61,4.26-3,6.91-7.25,6.91-12,0-9.08-9.85-16.45-22-16.45S-4,17.75-4,26.84,5.85,43.29,18,43.29a28.89,28.89,0,0,0,6.47-.73h0A14.13,14.13,0,0,0,36.67,44C34.17,43,32.16,39.42,32.16,39.42Z"/><path d="M46.79,63.5h0c-.24-.15-.48-.29-.7-.45C43,60.83,41,57.69,41,54.2c0-6.71,7.28-12.15,16.25-12.15S73.5,47.5,73.5,54.2,66.22,66.35,57.25,66.35a21.34,21.34,0,0,1-4.78-.54h0a10.44,10.44,0,0,1-9,1.06C45.31,66.14,46.79,63.5,46.79,63.5Z" fill="#60439a"/></g></svg>