<svg xmlns="http://www.w3.org/2000/svg" viewBox="0 0 71 80"><title>1</title><g id="file"><path d="M27.15,4.47H7.6c-2.77,0-5,2-5,4.39V19.61C2.57,22,4.83,24,7.6,24H21.23c1.28,1.91,3.61,3.58,7.84,3.88,0,0-3.08-1.76-4.21-3.88h2.29c2.77,0,5-2,5-4.39V8.87C32.18,6.45,29.92,4.47,27.15,4.47Z" fill="#fff"/><path d="M27.15,4.47l-7.34,0-7.34.14L8.8,4.77c-.61,0-1.24,0-1.8.09a5.11,5.11,0,0,0-1.63.51A4.15,4.15,0,0,0,3.26,7.79a4.6,4.6,0,0,0-.13,1.65l.05,1.84.21,7.34,0,.92a3.68,3.68,0,0,0,.09.72,3.17,3.17,0,0,0,.65,1.27A4.27,4.27,0,0,0,6.73,23a5.2,5.2,0,0,0,.76.07h2.73l3.67,0,7.34.05h.52l.27.42a7.09,7.09,0,0,0,3,2.59,12.72,12.72,0,0,0,4.09,1.07l-.42,1.39c-.45-.28-.84-.56-1.25-.87s-.79-.63-1.16-1a9,9,0,0,1-1.94-2.42l-.45-.87,1,0,1.74.05a7.21,7.21,0,0,0,1.63-.07A4.66,4.66,0,0,0,31,21.89a3.79,3.79,0,0,0,.77-1.39,6.09,6.09,0,0,0,.17-1.65l.1-3.48c0-2.32.11-4.64.1-7a4.23,4.23,0,0,0-1.72-2.88A5.52,5.52,0,0,0,27.15,4.47Zm0,0a5.54,5.54,0,0,1,3.27,1A4.29,4.29,0,0,1,32.2,8.42c.09,2.33.09,4.64.15,7l.1,3.48a6.64,6.64,0,0,1-.09,1.81,4.48,4.48,0,0,1-.81,1.69,5.5,5.5,0,0,1-3.12,2,8.2,8.2,0,0,1-1.83.19l-1.74.05.51-.85a7.85,7.85,0,0,0,1.79,2c.35.29.73.56,1.11.82s.79.51,1.17.72l2.87,1.56L29,28.62a13.28,13.28,0,0,1-4.7-1,8.91,8.91,0,0,1-3.88-3.12l.79.42L13.89,25l-3.67,0H7.44a7.11,7.11,0,0,1-1.07-.11,6,6,0,0,1-3.63-2.2,4.93,4.93,0,0,1-.93-2,5.45,5.45,0,0,1-.1-1.1l0-.92L2,11.28,2,9.44a5.66,5.66,0,0,1,.29-2A5.05,5.05,0,0,1,5,4.65a5.85,5.85,0,0,1,1.89-.48c.66,0,1.26,0,1.87,0l3.67.11,7.34.14Z"/><path d="M41.67,14H63.25a5.41,5.41,0,0,1,5.55,5.21V31.95a5.41,5.41,0,0,1-5.55,5.21h-15c-1.41,2.27-4,4.25-8.66,4.6,0,0,3.4-2.09,4.64-4.6H41.67a5.41,5.41,0,0,1-5.55-5.21V19.21A5.41,5.41,0,0,1,41.67,14Z" fill="#fff"/><path d="M41.67,14c5.52,0,11,0,16.57-.14l4.14-.08a10,10,0,0,1,2.11.09,6,6,0,0,1,2,.77,5.58,5.58,0,0,1,2.55,3.46,6.16,6.16,0,0,1,.14,1.11l0,1,0,2.07.16,8.28a15.9,15.9,0,0,1,0,2.16,5.62,5.62,0,0,1-.79,2.19,6.25,6.25,0,0,1-3.65,2.71,7.79,7.79,0,0,1-2.24.23H56.49l-8.28,0,.6-.34a9.72,9.72,0,0,1-4.06,3.57,13.75,13.75,0,0,1-5.16,1.22l-2.29.15,2-1.2a18,18,0,0,0,2.56-1.91,9.32,9.32,0,0,0,2-2.41l.39.63-2,0a7.33,7.33,0,0,1-2.08-.25,5.9,5.9,0,0,1-3.36-2.45,5.27,5.27,0,0,1-.77-2,11,11,0,0,1-.06-2.05l.08-4c.05-2.68,0-5.36.12-8A5.13,5.13,0,0,1,38,15.33,5.79,5.79,0,0,1,41.67,14Zm0,0A5.78,5.78,0,0,0,38,15.35a5.09,5.09,0,0,0-1.81,3.45c0,2.67,0,5.36.08,8l.08,4a10.66,10.66,0,0,0,.13,2,4.74,4.74,0,0,0,.76,1.73,5.26,5.26,0,0,0,3.07,2.07,6.54,6.54,0,0,0,1.9.14l2,0h.71l-.32.65a10.21,10.21,0,0,1-2.09,2.75,18.94,18.94,0,0,1-2.65,2.14l-.34-1a13.31,13.31,0,0,0,4.67-1.26,8.35,8.35,0,0,0,3.43-3.15l.2-.33h.4l8.28,0H62.7a6.32,6.32,0,0,0,1.87-.17,4.88,4.88,0,0,0,2.89-2,4.31,4.31,0,0,0,.65-1.66,18.87,18.87,0,0,0,.08-2l.16-8.28,0-2.07,0-1a5.42,5.42,0,0,0-.08-.95,4.91,4.91,0,0,0-2.14-3.12,5.42,5.42,0,0,0-1.8-.77,9.59,9.59,0,0,0-2-.16l-4.14-.08C52.71,14,47.19,14,41.67,14Z"/><path d="M42.59,44H10.76c-4.5,0-8.19,2.78-8.19,6.17V65.24c0,3.39,3.68,6.17,8.19,6.17H32.95c2.08,2.69,5.88,5,12.77,5.45,0,0-5-2.47-6.85-5.45h3.72c4.5,0,8.19-2.78,8.19-6.17V50.17C50.77,46.78,47.09,44,42.59,44Z" fill="#fff"/><path d="M42.59,44,31.12,44l-11.47.14-5.73.11-2.87.05a11.2,11.2,0,0,0-2.74.35,7.54,7.54,0,0,0-4.39,2.93A4.5,4.5,0,0,0,3.15,50l0,2.85.22,11.47a5.15,5.15,0,0,0,.37,2.46,5.3,5.3,0,0,0,1.52,1.89,8.65,8.65,0,0,0,4.77,1.72l.65,0H21.48l11.47.06h.47l.27.36A12,12,0,0,0,39,74.68a23.55,23.55,0,0,0,6.74,1.46l-.36,1.36A27.8,27.8,0,0,1,41.58,75a13.1,13.1,0,0,1-3.18-3.34l-.53-.85,1,0,2.59,0A17.54,17.54,0,0,0,44,70.86,8.68,8.68,0,0,0,48.51,69a5.16,5.16,0,0,0,2-4.28l.1-5.18.06-5.18,0-2.59a14,14,0,0,0-.08-2.57,6.16,6.16,0,0,0-3.09-3.93A10,10,0,0,0,42.59,44Zm0,0a10,10,0,0,1,5,1.26,6.22,6.22,0,0,1,3.15,3.95,15.58,15.58,0,0,1,.13,2.59l0,2.59.06,5.18.1,5.18a5.62,5.62,0,0,1-.44,2.65A6.44,6.44,0,0,1,49,69.56a9.47,9.47,0,0,1-4.86,2.19,18.39,18.39,0,0,1-2.65.16l-2.59,0,.47-.83a12,12,0,0,0,3,2.9A26.55,26.55,0,0,0,46,76.21l3.11,1.52-3.47-.17a24.73,24.73,0,0,1-7.25-1.3A13.77,13.77,0,0,1,32.21,72l.74.36-11.47.06H10.73l-.78,0A10.23,10.23,0,0,1,4.16,70.1a7.07,7.07,0,0,1-2-2.59c-.11-.25-.19-.53-.28-.79s-.12-.55-.15-.83a14.88,14.88,0,0,1,0-1.53l.22-11.47C2,51.92,2,51,2,50A5.59,5.59,0,0,1,3.07,47a8.45,8.45,0,0,1,5-3.13,12,12,0,0,1,2.94-.27l2.87.05,5.73.11L31.12,44Z"/><path d="M20.6,56a1.71,1.71,0,0,1,1.25.51,1.68,1.68,0,0,1,.52,1.24,1.76,1.76,0,0,1-3.53,0,1.68,1.68,0,0,1,.52-1.24A1.71,1.71,0,0,1,20.6,56Z" fill="#e59b3a"/><path d="M27,56a1.71,1.71,0,0,1,1.25.51,1.68,1.68,0,0,1,.52,1.24,1.76,1.76,0,0,1-3.53,0,1.68,1.68,0,0,1,.52-1.24A1.71,1.71,0,0,1,27,56Z" fill="#e59b3a"/><path d="M33.47,56a1.71,1.71,0,0,1,1.25.51,1.68,1.68,0,0,1,.52,1.24,1.76,1.76,0,0,1-3.53,0,1.68,1.68,0,0,1,.52-1.24A1.71,1.71,0,0,1,33.47,56Z" fill="#e59b3a"/></g></svg>