<svg xmlns="http://www.w3.org/2000/svg" xmlns:xlink="http://www.w3.org/1999/xlink" viewBox="0 0 71 80"><defs><clipPath id="clip-path"><rect x="4.5" y="3.4" width="61.99" height="62.14" fill="none"/></clipPath></defs><title>1</title><g id="file"><g clip-path="url(#clip-path)"><path d="M64.29,39.79l-3.82-2.45a26.07,26.07,0,0,0,.09-4.78l4-2.44a3.87,3.87,0,0,0,1.58-4.77L64,20.13a3.87,3.87,0,0,0-3.61-2.45,3.69,3.69,0,0,0-.83.09l-4.42,1a24.77,24.77,0,0,0-3.32-3.44l1.1-4.53A3.88,3.88,0,0,0,50.68,6.3l-5.14-2.2a3.9,3.9,0,0,0-4.79,1.47s0,0,0,0L38.32,9.44a25.94,25.94,0,0,0-4.77-.09l-2.44-4a3.94,3.94,0,0,0-3.33-1.86,3.67,3.67,0,0,0-1.44.28L21.12,5.9a3.89,3.89,0,0,0-2.36,4.44l1,4.42a23.88,23.88,0,0,0-3.56,3.45l-4.47-1.08a3.6,3.6,0,0,0-.91-.1,3.87,3.87,0,0,0-3.56,2.35L5,24.53a3.88,3.88,0,0,0,1.47,4.79l3.87,2.49a25,25,0,0,0-.05,4.79L6.38,39a0,0,0,0,0,0,0,4,4,0,0,0-1.65,4.64.19.19,0,0,1,0,.08l2.09,5.23a3.89,3.89,0,0,0,3.61,2.44,3.67,3.67,0,0,0,.83-.09l4.49-1a25.69,25.69,0,0,0,3.35,3.44L18,58.23a3.88,3.88,0,0,0,2.24,4.47l5.15,2.2a3.9,3.9,0,0,0,4.79-1.47l2.49-3.87a25,25,0,0,0,4.79.05l2.38,3.92a3.94,3.94,0,0,0,3.33,1.86,3.67,3.67,0,0,0,1.44-.28L49.89,63a3.89,3.89,0,0,0,2.36-4.44l-1-4.49a24.48,24.48,0,0,0,3.31-3.22L59.09,52a3.6,3.6,0,0,0,.91.1,3.87,3.87,0,0,0,3.56-2.35l2.21-5.14a3.88,3.88,0,0,0-1.47-4.79Zm-1.72,3.44-2.2,5.15a.42.42,0,0,1-.38.26h-.1l-5.58-1.35a1.7,1.7,0,0,0-1.77.62A21.22,21.22,0,0,1,48.3,52a1.73,1.73,0,0,0-.67,1.77l1.22,5.55a.43.43,0,0,1-.26.5l-5.23,2.09-.15,0a.43.43,0,0,1-.37-.21l-3-4.86a1.73,1.73,0,0,0-1.47-.83h-.22a23.18,23.18,0,0,1-2.82.18A21.19,21.19,0,0,1,32.11,56a1.72,1.72,0,0,0-1.72.77l-3.08,4.78a.44.44,0,0,1-.53.17l-5.15-2.21a.42.42,0,0,1-.24-.49l1.33-5.54a1.74,1.74,0,0,0-.63-1.78,21.65,21.65,0,0,1-4.24-4.35,1.74,1.74,0,0,0-1.77-.67l-5.55,1.22h-.1a.43.43,0,0,1-.4-.27L8,42.47a.5.5,0,0,1,.21-.55L13,39a1.73,1.73,0,0,0,.82-1.7,21,21,0,0,1,.08-6.08,1.72,1.72,0,0,0-.77-1.72L8.35,26.4a.43.43,0,0,1-.17-.53l2.2-5.14a.42.42,0,0,1,.39-.26h.1l5.54,1.33a1.71,1.71,0,0,0,1.78-.64,20.2,20.2,0,0,1,4.45-4.29,1.72,1.72,0,0,0,.69-1.78l-1.19-5.5a.43.43,0,0,1,.26-.5L27.63,7l.15,0a.47.47,0,0,1,.38.2l3,4.9a1.74,1.74,0,0,0,1.69.81,21.93,21.93,0,0,1,6.06.1,1.74,1.74,0,0,0,1.73-.79l3-4.77a.43.43,0,0,1,.51-.17l5.14,2.21a.42.42,0,0,1,.24.49l-1.35,5.58a1.73,1.73,0,0,0,.62,1.77A21.47,21.47,0,0,1,53,21.67a1.71,1.71,0,0,0,1.77.68l5.5-1.19h.1a.43.43,0,0,1,.4.27l2.09,5.23a.43.43,0,0,1-.18.53l-4.9,3A1.73,1.73,0,0,0,57,31.86a21.93,21.93,0,0,1-.1,6.06,1.73,1.73,0,0,0,.78,1.72l4.74,3a.47.47,0,0,1,.15.55Zm0,0"/></g><path d="M35.41,21.65h-.2A12.83,12.83,0,0,0,35,47.32h.21a12.83,12.83,0,0,0,.19-25.66Zm-.19,22.2h-.14a9.37,9.37,0,0,1,.14-18.74h.14a9.37,9.37,0,0,1-.14,18.74Zm0,0" fill="#98c03d"/><path d="M7.21,70.52l-1,1a1.67,1.67,0,0,0-1.1-.6A.69.69,0,0,0,4.7,71a.34.34,0,0,0-.15.28.35.35,0,0,0,.1.24,1.8,1.8,0,0,0,.48.3l.59.29A3.45,3.45,0,0,1,7,73.06,1.94,1.94,0,0,1,6.7,75.6,2.39,2.39,0,0,1,5,76.16,2.66,2.66,0,0,1,2.8,75.07l1-1.07a2.27,2.27,0,0,0,.66.53,1.46,1.46,0,0,0,.67.2.8.8,0,0,0,.51-.15.44.44,0,0,0,.19-.35q0-.37-.7-.72l-.54-.27Q3,72.46,3,71.29A1.69,1.69,0,0,1,3.62,70a2.12,2.12,0,0,1,1.49-.54,2.59,2.59,0,0,1,2.1,1.05Z"/><path d="M14.83,70.91l-1.33.73a2.25,2.25,0,0,0-.74-.54,2.23,2.23,0,0,0-.86-.15,2,2,0,0,0-1.45.54,1.82,1.82,0,0,0-.55,1.37,1.76,1.76,0,0,0,.53,1.33,1.93,1.93,0,0,0,1.4.51A2,2,0,0,0,13.5,74l1.26.86a3.44,3.44,0,0,1-2.89,1.33,3.47,3.47,0,0,1-2.63-1,3.31,3.31,0,0,1,.8-5.26,3.86,3.86,0,0,1,1.85-.45,3.76,3.76,0,0,1,1.71.38A3.24,3.24,0,0,1,14.83,70.91Z"/><path d="M19.26,69.46a3.38,3.38,0,0,1,1.7.45,3.31,3.31,0,0,1,1.68,2.89,3.35,3.35,0,0,1-.45,1.69A3.23,3.23,0,0,1,21,75.72a3.37,3.37,0,0,1-1.71.44,3.18,3.18,0,0,1-2.34-1,3.38,3.38,0,0,1,.13-4.86A3.2,3.2,0,0,1,19.26,69.46Zm0,1.51a1.65,1.65,0,0,0-1.24.52,1.84,1.84,0,0,0-.5,1.33A1.87,1.87,0,0,0,18,74.16a1.64,1.64,0,0,0,1.24.52,1.66,1.66,0,0,0,1.25-.52,2.06,2.06,0,0,0,0-2.67A1.66,1.66,0,0,0,19.29,71Z"/><path d="M23.58,69.63h1.37v.8a1.71,1.71,0,0,1,.59-.72,1.43,1.43,0,0,1,.81-.25,1.5,1.5,0,0,1,.65.16L26.5,71a1.1,1.1,0,0,0-.46-.14.73.73,0,0,0-.62.46,4.18,4.18,0,0,0-.25,1.79V76H23.58Z"/><path d="M27.78,69.63h1.6v.73a2.72,2.72,0,0,1,.91-.67,2.66,2.66,0,0,1,1.09-.22,2,2,0,0,1,1.08.29,2.12,2.12,0,0,1,.77.86,2.58,2.58,0,0,1,.93-.86,2.55,2.55,0,0,1,1.21-.29,2.24,2.24,0,0,1,1.2.32,1.83,1.83,0,0,1,.74.83,4.42,4.42,0,0,1,.23,1.66V76H35.93V72.77a2.77,2.77,0,0,0-.27-1.47.92.92,0,0,0-.81-.38,1.23,1.23,0,0,0-.74.23,1.39,1.39,0,0,0-.48.65,4,4,0,0,0-.16,1.33V76H31.87V72.91a4.36,4.36,0,0,0-.13-1.24,1.13,1.13,0,0,0-.38-.57,1,1,0,0,0-.61-.19,1.21,1.21,0,0,0-.73.24,1.42,1.42,0,0,0-.49.67,4.12,4.12,0,0,0-.16,1.35V76h-1.6Z"/><path d="M43.71,70.16h-1.6A3.16,3.16,0,0,1,43,68a3.09,3.09,0,0,1,3.47-.47,2.48,2.48,0,0,1,1,1,2.51,2.51,0,0,1,.36,1.27,3.76,3.76,0,0,1-.44,1.65,9,9,0,0,1-1.6,2.09l-1,1h3.07V76h-6v-.79l2.67-2.72a7.78,7.78,0,0,0,1.29-1.57,2.32,2.32,0,0,0,.32-1.08,1.11,1.11,0,0,0-.33-.82A1.17,1.17,0,0,0,45,68.7a1.13,1.13,0,0,0-.88.39A1.63,1.63,0,0,0,43.71,70.16Z"/><path d="M51.67,67.16a2.83,2.83,0,0,1,1.63.46A2.93,2.93,0,0,1,54.35,69a9.63,9.63,0,0,1,0,5.32,3,3,0,0,1-1,1.4,2.74,2.74,0,0,1-1.61.45,2.84,2.84,0,0,1-1.63-.45,2.94,2.94,0,0,1-1-1.37,7.2,7.2,0,0,1-.37-2.62,6.22,6.22,0,0,1,.73-3.44A2.61,2.61,0,0,1,51.67,67.16Zm0,1.56A1.12,1.12,0,0,0,51,69a1.73,1.73,0,0,0-.49.92,8,8,0,0,0-.17,1.9,4.62,4.62,0,0,0,.39,2.26,1.16,1.16,0,0,0,1,.62,1.06,1.06,0,0,0,.95-.59,4.93,4.93,0,0,0,.43-2.39,5,5,0,0,0-.38-2.34A1.13,1.13,0,0,0,51.71,68.72Z"/><path d="M58.39,67.16a2.83,2.83,0,0,1,1.63.46A2.93,2.93,0,0,1,61.07,69a9.63,9.63,0,0,1,0,5.32,3,3,0,0,1-1,1.4,2.74,2.74,0,0,1-1.61.45,2.84,2.84,0,0,1-1.63-.45,2.94,2.94,0,0,1-1-1.37,7.2,7.2,0,0,1-.37-2.62,6.22,6.22,0,0,1,.73-3.44A2.61,2.61,0,0,1,58.39,67.16Zm0,1.56a1.12,1.12,0,0,0-.74.27,1.73,1.73,0,0,0-.49.92,8,8,0,0,0-.17,1.9,4.62,4.62,0,0,0,.39,2.26,1.16,1.16,0,0,0,1,.62,1.06,1.06,0,0,0,.95-.59,4.93,4.93,0,0,0,.43-2.39,5,5,0,0,0-.38-2.34A1.13,1.13,0,0,0,58.43,68.72Z"/><path d="M65.76,67.16h1.63v5.55h.77v1.52h-.77V76H65.79V74.23H62V72.71Zm0,5.55V69.82l-2,2.89Z"/></g></svg>