<svg xmlns="http://www.w3.org/2000/svg" viewBox="0 0 71 80"><title>1</title><g id="file"><path d="M62.56,39.94a8.5,8.5,0,0,0,3.8-3A7.78,7.78,0,0,0,66.28,28a8.51,8.51,0,0,0-3.86-3,7.17,7.17,0,0,1,4.47,2.48A7.71,7.71,0,0,1,67,37.37,7.18,7.18,0,0,1,62.56,39.94Z" fill="#e59b3a"/><path d="M62.22,25c-.47-5.55-.8-11.11-1.07-16.67L61,4.17c0-.3,0-.06,0,.06a.54.54,0,0,0,.27.28.56.56,0,0,0,.41,0c.14,0,.34-.24.12,0-.48.52-1,1-1.45,1.55a70.9,70.9,0,0,1-6.25,5.76,59.54,59.54,0,0,1-14.56,9,38.18,38.18,0,0,1-8.36,2.39c-.72.1-1.44.25-2.17.3l-2.2.12a12.6,12.6,0,0,1-2.2,0l-2.09-.14h-.13a1.4,1.4,0,0,1-1.11-.7,2.23,2.23,0,0,0-.75-.79,10.77,10.77,0,0,0-1.4-.57,22.32,22.32,0,0,0-3.34-.85,20.19,20.19,0,0,0-6.94.09c-.58.1-1.14.25-1.71.4l-.84.26-.41.14-.32.14a2.83,2.83,0,0,0-1.5,2.35c-.29,2.42-.5,4.85-.6,7.29a61.39,61.39,0,0,0,0,7.29A30.8,30.8,0,0,0,3.93,42,10.18,10.18,0,0,0,5,45.25a1.94,1.94,0,0,0,1,.88,12.91,12.91,0,0,0,1.65.09,11.09,11.09,0,0,1,3.85.9,8.2,8.2,0,0,1,1.77,1.07,4.45,4.45,0,0,1,1.35,1.9,4.74,4.74,0,0,1,.27,1.13l.08,1L15.12,54c.43,4.89.9,9.77,1.29,14.66l.29,3.67c0,.28,0,.66.07.87a2.08,2.08,0,0,0,.12.48,2,2,0,0,0,.56.8,1.7,1.7,0,0,0,1.65.39.85.85,0,0,0,.48-.31,1,1,0,0,0,0-.58,3.65,3.65,0,0,0-.12-.58c0-.13-.06-.17-.11-.37l-.14-.56a13.05,13.05,0,0,1-.34-2.13c-.05-.68-.06-1.33-.08-2l0-1.93c.11-2.55.39-5,.71-7.5s.71-4.92,1.18-7.35l.72-3.64.39-1.82.07-.34a1.46,1.46,0,0,0,0-.19s0-.46,0-.74v0a2.13,2.13,0,0,1,2-2.21h.28a86.4,86.4,0,0,1,16.39,3.1A47.82,47.82,0,0,1,55.82,53a29.66,29.66,0,0,1,3.23,2.86,24.35,24.35,0,0,1,2.68,3.43c.2.31.37.63.55.94l.26.45a.63.63,0,0,0-.33-.24.52.52,0,0,0-.63.29.46.46,0,0,0-.05.18.22.22,0,0,0,0,.06v-.64l.13-4.08c.08-2.72.19-5.44.31-8.16s.22-5.44.39-8.16a.2.2,0,0,1,.4,0c.21,2.72.38,5.43.54,8.15s.34,5.43.47,8.15L64,60.31l0,.51v.13c0,.09,0,.21,0,.31a2,2,0,0,1-2.6,1.63,2,2,0,0,1-1.1-.87L60,61.61c-.18-.26-.35-.53-.53-.78a23.05,23.05,0,0,0-5.55-5.2,47.21,47.21,0,0,0-14.37-6.1,91.23,91.23,0,0,0-15.67-2.65l2.32-2.23c0,.33,0,.53,0,1.09a5.74,5.74,0,0,1-.07.73l-.07.34L26,47l-.38,1.77-.72,3.57c-.45,2.38-.91,4.76-1.29,7.14s-.7,4.77-.86,7.12l-.08,1.75c0,.56,0,1.14,0,1.69a9.53,9.53,0,0,0,.19,1.5l.07.34c0,.1.1.35.14.52a7.31,7.31,0,0,1,.21,1.22,4.56,4.56,0,0,1-.68,2.95,4.13,4.13,0,0,1-1.16,1.15,5.2,5.2,0,0,1-1.31.61A5.25,5.25,0,0,1,15,77a5.44,5.44,0,0,1-1.68-3.57c0-.4,0-.64,0-1l-.11-3.68c-.15-4.9-.22-9.81-.33-14.71l0-1.84,0-.88a2.7,2.7,0,0,0-.11-.66A2.5,2.5,0,0,0,12,49.64a6.37,6.37,0,0,0-1.32-.9,9.41,9.41,0,0,0-3.22-1c-.29,0-.57-.06-.87-.08a3.73,3.73,0,0,1-1.13-.18A3.35,3.35,0,0,1,3.8,46a11.38,11.38,0,0,1-1.15-3.73,34.11,34.11,0,0,1-.4-3.73c-.13-2.48-.11-4.95-.05-7.41s.2-4.92.37-7.38A4.54,4.54,0,0,1,4.73,20a4.7,4.7,0,0,1,.51-.26l.45-.19.89-.34c.6-.21,1.21-.41,1.83-.57A22.81,22.81,0,0,1,16.09,18a25,25,0,0,1,3.85.65,11,11,0,0,1,2,.7A5.24,5.24,0,0,1,23.87,21l-1.24-.71H24.7a13.24,13.24,0,0,0,2-.07l2-.18c.65-.06,1.3-.24,1.95-.35a38.79,38.79,0,0,0,3.85-.94c.64-.15,1.26-.43,1.89-.64s1.26-.42,1.87-.71A62.33,62.33,0,0,0,52.12,9.32c2.17-1.65,4.26-3.41,6.27-5.24.51-.46,1-.93,1.49-1.4A2.46,2.46,0,0,1,60.83,2a2,2,0,0,1,2.46,1,2.25,2.25,0,0,1,.2,1.08l-.12,4.17C63.21,13.87,63,19.43,62.62,25a.2.2,0,0,1-.4,0Z"/></g></svg>