<svg id="shortcut" xmlns="http://www.w3.org/2000/svg" xmlns:xlink="http://www.w3.org/1999/xlink" viewBox="0 0 71 80"><defs><clipPath id="clip-path"><rect x="0.51" y="15.2" width="67.42" height="50.99" fill="none"/></clipPath></defs><title>1</title><g clip-path="url(#clip-path)"><path d="M65.71,27.27H62c-.42,0-.35-.62-.35-.62V24.8a4.42,4.42,0,0,0-4.42-4.42H27c-.2,0-.45-.41-.89-1.27l-.2-.38C24.39,15.81,22.39,15.2,21,15.2H13.12c-2,0-3.17,1.15-4.57,3.43l-.27.45c-.45.76-.79,1.3-1.05,1.3H4.92A4.42,4.42,0,0,0,.51,24.8V61.53a4.42,4.42,0,0,0,3.61,4.34,2.43,2.43,0,0,0,.81.14h53.9a3.29,3.29,0,0,0,3.12-2.61l6-33.51a2.15,2.15,0,0,0-2.19-2.61ZM4.92,23.92h2.3c2.3,0,3.38-1.82,4.09-3l.24-.4c.71-1.16,1.27-1.75,1.94-1.75H21c.24,0,1,0,1.82,1.65l.18.35c.65,1.27,1.64,3.18,4,3.18H57.24a.9.9,0,0,1,.88.88v1.77s.05.71-.35.71h-46A3.29,3.29,0,0,0,8.7,29.88L4.27,54.8S4,55.64,4,54.09V24.8a.9.9,0,0,1,.88-.88Zm0,0"/></g><path d="M61.76,46.8A13.47,13.47,0,1,0,66,56.21a13.38,13.38,0,0,0-4.23-9.41Zm3,8.84-5.23.15a23.4,23.4,0,0,0-1-5.83,13.37,13.37,0,0,0,2.72-2,12.25,12.25,0,0,1,3.53,7.68ZM53.13,57.19,58.35,57a22.15,22.15,0,0,1-.61,5.41,13.61,13.61,0,0,0-4.48-.84Zm7.2-10a12.27,12.27,0,0,1-2.24,1.66,14,14,0,0,0-.76-1.63,9.7,9.7,0,0,0-1.84-2.48,12.23,12.23,0,0,1,4.85,2.45ZM52.76,44.5c1.27.24,2.49,1.37,3.5,3.24A13.73,13.73,0,0,1,57,49.35a12.35,12.35,0,0,1-4.07,1Zm4.64,6a22.15,22.15,0,0,1,.91,5.33L53.1,56,53,51.61a13.63,13.63,0,0,0,4.43-1.1ZM51.88,56l-5.22.15a22.15,22.15,0,0,1,.6-5.37,13.37,13.37,0,0,0,4.49.84L51.88,56Zm-.33-11.48.17,5.89a12.32,12.32,0,0,1-4.13-.8A13.73,13.73,0,0,1,48.25,48c.9-1.92,2.06-3.12,3.31-3.43Zm-2.7.35a9.8,9.8,0,0,0-1.7,2.58,16.17,16.17,0,0,0-.66,1.67,12.44,12.44,0,0,1-2.33-1.52,12.22,12.22,0,0,1,4.69-2.73Zm-5.54,3.6a13.59,13.59,0,0,0,2.83,1.83,23.21,23.21,0,0,0-.68,5.88l-5.23.15a12.25,12.25,0,0,1,3.08-7.87Zm-3,9.08,5.23-.15a23.38,23.38,0,0,0,1,5.87,13.26,13.26,0,0,0-2.71,2,12.23,12.23,0,0,1-3.55-7.7Zm4.44,8.52a12.31,12.31,0,0,1,2.23-1.64,14.93,14.93,0,0,0,.75,1.6,9.84,9.84,0,0,0,1.85,2.48,12.28,12.28,0,0,1-4.82-2.44Zm7.54,2.62c-1.27-.24-2.49-1.37-3.5-3.24A14.1,14.1,0,0,1,48,63.88a12.15,12.15,0,0,1,4.06-1Zm-4.63-6a22.14,22.14,0,0,1-.92-5.36l5.22-.15.13,4.42a13.34,13.34,0,0,0-4.43,1.1Zm5.84,5.93-.17-5.85a12.28,12.28,0,0,1,4.11.79,14.15,14.15,0,0,1-.64,1.62c-.9,1.92-2.06,3.12-3.31,3.43Zm2.7-.35a9.73,9.73,0,0,0,1.7-2.59,14.85,14.85,0,0,0,.65-1.64,12.3,12.3,0,0,1,2.32,1.51,12.14,12.14,0,0,1-4.67,2.71Zm5.52-3.57a13.46,13.46,0,0,0-2.82-1.82A23.42,23.42,0,0,0,59.57,57l5.23-.15a12.28,12.28,0,0,1-3.1,7.89Zm0,0" fill="#e59b3a"/></svg>