<svg xmlns="http://www.w3.org/2000/svg" viewBox="0 0 71 80"><title>1</title><g id="file"><polygon points="49.06 8.53 45.6 23.38 63.01 27.43 49.06 8.53" fill="none" stroke="#000" stroke-linecap="round" stroke-linejoin="round" stroke-width="1.6"/><rect x="22.7" y="27.55" width="32.2" height="2.13" rx="0.48" ry="0.48" transform="translate(7.5 -8.05) rotate(13.1)"/><rect x="12.89" y="66.83" width="32.2" height="2.13" rx="0.48" ry="0.48" transform="translate(16.14 -4.8) rotate(13.1)"/><rect x="18.08" y="47.38" width="32.2" height="2.13" rx="0.48" ry="0.48" transform="translate(11.87 -6.49) rotate(13.1)"/><rect x="15.73" y="55.4" width="32.2" height="6.27" rx="1.17" ry="1.17" transform="translate(14.1 -5.69) rotate(13.1)" fill="none" stroke="#e59b3a" stroke-miterlimit="10" stroke-width="0.93"/><rect x="20.51" y="34.88" width="32.2" height="6.27" rx="1.17" ry="1.17" transform="translate(9.57 -7.31) rotate(13.1)" fill="none" stroke="#e59b3a" stroke-miterlimit="10" stroke-width="0.93"/><circle cx="17.87" cy="23.99" r="1.3" transform="translate(-9.55 35.96) rotate(-76.9)" fill="#e59b3a"/><circle cx="15.74" cy="33.16" r="1.3" transform="translate(-20.12 40.97) rotate(-76.9)"/><circle cx="13.31" cy="43.59" r="1.3" transform="translate(-32.16 46.68) rotate(-76.9)" fill="#e59b3a"/><circle cx="11.03" cy="53.39" r="1.3" transform="translate(-43.47 52.04) rotate(-76.9)"/><circle cx="8.75" cy="63.19" r="1.3" transform="translate(-54.78 57.39) rotate(-76.9)" fill="#e59b3a"/><polygon points="49.41 8.61 16.2 0.88 0 70.51 50.27 82.21 63.17 26.76 49.41 8.61" fill="none" stroke="#000" stroke-linecap="round" stroke-linejoin="round" stroke-width="1.6"/></g></svg>