<svg xmlns="http://www.w3.org/2000/svg" viewBox="0 0 71 80"><title>1</title><g id="file"><path d="M13.69,36.08q.19-.74.46-1.57t.53-1.61q.27-.78.38-1.2.47-1.67.86-3.33A22.82,22.82,0,0,0,16.44,25l-.79.63q-.52.4-1.09.79a12.42,12.42,0,0,1-1.11.68,2,2,0,0,1-.88.29c-.19,0-.31-.05-.36-.15a.77.77,0,0,1-.08-.38.84.84,0,0,1,.33-.67A3.2,3.2,0,0,1,13,25.8q.29-.17.57-.36a16.92,16.92,0,0,0,2-1.66,14.07,14.07,0,0,0,1.68-2,1.73,1.73,0,0,1,.68-.58,2.14,2.14,0,0,1,.88-.17l.39,0a1.54,1.54,0,0,1,.42.11,1.08,1.08,0,0,1,.33.22.49.49,0,0,1,.14.36,1,1,0,0,1-.11.46q-.11.21-.25.43a10.06,10.06,0,0,0-.78,1.84q-.31,1-.56,1.92-.53,1.92-.93,3.83t-.77,3.85q-.11.56-.18,1.13t-.18,1.13A1.31,1.31,0,0,1,16,37a1.48,1.48,0,0,1-.54.36,2.73,2.73,0,0,1-.7.17,5.37,5.37,0,0,0-.71.13.49.49,0,0,1-.2,0,.31.31,0,0,1-.32-.17,1,1,0,0,1-.07-.39A4.79,4.79,0,0,1,13.69,36.08Z"/><path d="M22.48,28.05a12.73,12.73,0,0,1,1.65-3.34,9.52,9.52,0,0,1,2.57-2.53,5.91,5.91,0,0,1,3.35-1,3.52,3.52,0,0,1,2,.57,4.19,4.19,0,0,1,1.31,1.48,6.93,6.93,0,0,1,.7,2,11,11,0,0,1,.21,2.09,10.57,10.57,0,0,1-.6,3.37A12,12,0,0,1,32,33.92a9.73,9.73,0,0,1-2.57,2.45,5.88,5.88,0,0,1-3.28,1,3.67,3.67,0,0,1-2-.53,4.08,4.08,0,0,1-1.33-1.38,6.24,6.24,0,0,1-.72-1.89,9.79,9.79,0,0,1-.22-2A11.2,11.2,0,0,1,22.48,28.05Zm1.7,5.16a6.54,6.54,0,0,0,.32,1.42,3.17,3.17,0,0,0,.68,1.15,1.53,1.53,0,0,0,1.17.47,3.8,3.8,0,0,0,1.81-.46,6.19,6.19,0,0,0,1.59-1.22,10.61,10.61,0,0,0,1.32-1.74,13.5,13.5,0,0,0,1-2,12.79,12.79,0,0,0,.64-2A8.41,8.41,0,0,0,32.95,27a5.87,5.87,0,0,0-.17-1.31,5.16,5.16,0,0,0-.51-1.35,3.44,3.44,0,0,0-.88-1,2,2,0,0,0-1.25-.42,3.65,3.65,0,0,0-2.48,1,9.16,9.16,0,0,0-1.91,2.41,13.48,13.48,0,0,0-1.22,3,10.36,10.36,0,0,0-.43,2.7A11.47,11.47,0,0,0,24.18,33.21Z"/><path d="M42.15,63q.19-.74.46-1.57t.53-1.61q.27-.78.38-1.2.47-1.67.86-3.33a22.85,22.85,0,0,0,.53-3.38l-.79.63q-.52.4-1.09.79a12.32,12.32,0,0,1-1.11.68,2,2,0,0,1-.88.29c-.19,0-.31-.05-.36-.15a.77.77,0,0,1-.08-.38.85.85,0,0,1,.33-.67,3.25,3.25,0,0,1,.54-.39q.29-.17.57-.36a16.88,16.88,0,0,0,2-1.66,14,14,0,0,0,1.68-2,1.73,1.73,0,0,1,.68-.58,2.14,2.14,0,0,1,.88-.17l.39,0a1.58,1.58,0,0,1,.42.11,1.09,1.09,0,0,1,.33.22.49.49,0,0,1,.14.36,1,1,0,0,1-.11.46q-.11.21-.25.43a10.05,10.05,0,0,0-.78,1.84q-.31,1-.56,1.92-.53,1.92-.93,3.83T45.15,61Q45,61.6,45,62.16t-.18,1.13a1.31,1.31,0,0,1-.31.65,1.49,1.49,0,0,1-.54.36,2.77,2.77,0,0,1-.7.17,5.3,5.3,0,0,0-.71.13.49.49,0,0,1-.2,0,.31.31,0,0,1-.32-.17,1,1,0,0,1-.07-.39A4.8,4.8,0,0,1,42.15,63Z"/><path d="M50.94,55a12.73,12.73,0,0,1,1.65-3.34,9.53,9.53,0,0,1,2.57-2.53,5.91,5.91,0,0,1,3.35-1,3.52,3.52,0,0,1,2,.57,4.18,4.18,0,0,1,1.31,1.48,6.92,6.92,0,0,1,.7,2,11,11,0,0,1,.21,2.09,10.58,10.58,0,0,1-.6,3.37,12,12,0,0,1-1.67,3.26,9.73,9.73,0,0,1-2.57,2.45,5.88,5.88,0,0,1-3.28,1,3.67,3.67,0,0,1-2-.53,4.07,4.07,0,0,1-1.33-1.38,6.24,6.24,0,0,1-.72-1.89,9.79,9.79,0,0,1-.22-2A11.2,11.2,0,0,1,50.94,55Zm1.7,5.16A6.53,6.53,0,0,0,53,61.55a3.17,3.17,0,0,0,.68,1.16,1.53,1.53,0,0,0,1.17.47,3.79,3.79,0,0,0,1.81-.46,6.17,6.17,0,0,0,1.59-1.22,10.54,10.54,0,0,0,1.32-1.74,13.45,13.45,0,0,0,1-2,12.81,12.81,0,0,0,.64-2,8.41,8.41,0,0,0,.22-1.81,5.87,5.87,0,0,0-.17-1.31,5.18,5.18,0,0,0-.51-1.35,3.45,3.45,0,0,0-.88-1,2,2,0,0,0-1.25-.42,3.65,3.65,0,0,0-2.48,1,9.17,9.17,0,0,0-1.91,2.41,13.47,13.47,0,0,0-1.22,3,10.36,10.36,0,0,0-.43,2.7A11.47,11.47,0,0,0,52.64,60.13Z"/><path d="M56.07,25q-5.8,4.2-11.1,8.8c-1.75,1.56-3.5,3.11-5.14,4.77S36.55,41.9,35,43.67a63.63,63.63,0,0,0-8,11.33,52,52,0,0,0-2.86,6.35,53.69,53.69,0,0,0-1.93,6.8,31.21,31.21,0,0,1,.6-7.18A38,38,0,0,1,25.07,54a46.79,46.79,0,0,1,3.45-6.42,62.48,62.48,0,0,1,4.39-5.8A65.56,65.56,0,0,1,43.6,32.11,58.85,58.85,0,0,1,56.07,25Z" fill="#128bc7"/></g></svg>