<svg xmlns="http://www.w3.org/2000/svg" viewBox="0 0 71 80"><title>1</title><g id="file"><path d="M8.91,37.38A9.1,9.1,0,0,1,18,28.31H45.4a9,9,0,0,1,3.16.58V26.1A9.1,9.1,0,0,0,39.49,17H12.07A9.1,9.1,0,0,0,3,26.1V38.73a9.1,9.1,0,0,0,5.91,8.49Z"/><path d="M8.87,37.38A9.32,9.32,0,0,1,15,28.68a9,9,0,0,1,2.79-.55c.94,0,1.87,0,2.81-.06L26.19,28c3.74,0,7.48,0,11.22,0l5.61.06c.94,0,1.86,0,2.82,0a9.26,9.26,0,0,1,2.79.62l-.25.17a19.35,19.35,0,0,0-.26-5.08,8.93,8.93,0,0,0-2.57-4.29,8.87,8.87,0,0,0-4.48-2.21,12.65,12.65,0,0,0-2.54-.13l-2.57,0-20.58.18H12.79a12.06,12.06,0,0,0-2.48.19,9.47,9.47,0,0,0-2.3.85A9.42,9.42,0,0,0,6,19.9a8.71,8.71,0,0,0-2.4,4.21,9.78,9.78,0,0,0-.24,2.46v2.57L3.33,39.41A8.93,8.93,0,0,0,9,47.1l-.17.12C8.85,43.94,8.84,40.66,8.87,37.38Zm.08,0c0,3.28,0,6.56.09,9.84v.18l-.18-.06a9.39,9.39,0,0,1-6.14-7.88c-.09-3.48-.11-6.87-.11-10.31V26.57a10.61,10.61,0,0,1,.26-2.64,9.43,9.43,0,0,1,7.29-7.09,12.84,12.84,0,0,1,2.64-.19h2.57l20.58.18,2.57,0A14,14,0,0,1,41.1,17a9.12,9.12,0,0,1,4.6,2.31,8.9,8.9,0,0,1,1.65,2,8.56,8.56,0,0,1,1,2.39,9.56,9.56,0,0,1,.33,2.58l0,2.57v.27l-.26-.09a8.84,8.84,0,0,0-2.68-.52c-.91,0-1.86,0-2.79,0l-5.61.06c-3.74,0-7.48,0-11.22,0l-5.61-.07c-1.87,0-3.76-.23-5.51.41a8.8,8.8,0,0,0-4.41,3.22,9.25,9.25,0,0,0-1.27,2.47A9.82,9.82,0,0,0,8.94,37.38Z"/><rect x="12.44" y="31.43" width="45.56" height="30.77" rx="9.07" ry="9.07" fill="#fff"/><path d="M48.93,62.25c-5.71,0-11.42.11-17.13.22-2.86.07-5.71.07-8.57.1-.72,0-1.41,0-2.16,0a9,9,0,0,1-2.19-.37A9.38,9.38,0,0,1,15.07,60a9.19,9.19,0,0,1-2.37-3.7,9.55,9.55,0,0,1-.47-2.15c-.05-.74,0-1.46,0-2.17,0-2.86.08-5.71.09-8.57a39.44,39.44,0,0,1,.13-4.3,9,9,0,0,1,1.62-4,9.39,9.39,0,0,1,7.46-3.91L38.64,31l8.57,0c.72,0,1.41,0,2.16,0a9.09,9.09,0,0,1,2.21.37,9.57,9.57,0,0,1,6.28,5.94,9.7,9.7,0,0,1,.51,2.18,21.73,21.73,0,0,1,0,2.18l-.12,8.57a37.05,37.05,0,0,1-.2,4.31,9,9,0,0,1-1.71,4A9.26,9.26,0,0,1,48.93,62.25Zm0-.08a9,9,0,0,0,7.24-3.8,8.67,8.67,0,0,0,1.52-3.88,36,36,0,0,0,0-4.25l-.12-8.57c0-.72,0-1.43-.07-2.09a8.85,8.85,0,0,0-.47-2,8.7,8.7,0,0,0-5.73-5.38,14.37,14.37,0,0,0-4.12-.35l-8.57,0-17.13-.17a8.86,8.86,0,0,0-7.22,3.63,8.69,8.69,0,0,0-1.61,3.85,33.7,33.7,0,0,0-.1,4.26c0,2.86,0,5.71.09,8.57,0,.72,0,1.43.08,2.11a9,9,0,0,0,.5,2,9,9,0,0,0,5.83,5.4,14.88,14.88,0,0,0,4.14.35c2.86,0,5.71,0,8.57.1C37.51,62.06,43.22,62.15,48.93,62.16Z"/><path d="M48.93,20.59a16.18,16.18,0,0,1,10.47,3.1,11.79,11.79,0,0,1,3.65,4.51,12.92,12.92,0,0,1,1.14,5.66l-2.11,0-.18-1.22a5,5,0,0,0-.25-1.19l-.33-1.16-.49-1.09A12.5,12.5,0,0,0,58,25.46a20.83,20.83,0,0,0-4.16-2.8A36.38,36.38,0,0,0,48.93,20.59Z"/><path d="M61.43,42.41a43.51,43.51,0,0,0-4.58-13.31l6.31,3.64,7.17-1.24A43.47,43.47,0,0,0,61.43,42.41Z"/><line x1="20.28" y1="40" x2="50.16" y2="40" fill="none" stroke="#e59b3a" stroke-linecap="round" stroke-miterlimit="10"/><line x1="20.28" y1="46.82" x2="50.15" y2="46.82" fill="none" stroke="#e59b3a" stroke-linecap="round" stroke-miterlimit="10"/><line x1="20.28" y1="53.64" x2="50.15" y2="53.64" fill="none" stroke="#e59b3a" stroke-linecap="round" stroke-miterlimit="10"/></g></svg>