<svg xmlns="http://www.w3.org/2000/svg" viewBox="0 0 71 80"><title>1</title><g id="file"><path d="M42.33,50.44a12.38,12.38,0,1,1-10.06-10.6,9.3,9.3,0,0,1,3.64-6.13A19.2,19.2,0,1,0,48.64,47.13,9.29,9.29,0,0,1,42.33,50.44Z" fill="#128bc7"/><path d="M42.37,50.47a12.62,12.62,0,0,1,0,3.86,13.24,13.24,0,0,1-1.24,3.72,12.64,12.64,0,0,1-13.38,6.51,12.57,12.57,0,0,1-6.94-3.74,12.47,12.47,0,0,1-3.41-7.13A12.56,12.56,0,0,1,24.58,40.6a12,12,0,0,1,3.8-1.08,12.57,12.57,0,0,1,3.93.13l-.23.17a9.51,9.51,0,0,1,3.74-6.23l0,.28A17.87,17.87,0,0,0,29.68,33a18.05,18.05,0,0,0-6.13,1.18A18.86,18.86,0,1,0,39.17,68.39a19.14,19.14,0,0,0,8.25-9,19.47,19.47,0,0,0,1-12.23l.33.07a9.5,9.5,0,0,1-2.92,2.27,9.37,9.37,0,0,1-1.72.66A7.75,7.75,0,0,1,42.37,50.47Zm-.08-.06A11.21,11.21,0,0,0,44.1,50a9.18,9.18,0,0,0,4.4-3l.23-.29.1.36A19.66,19.66,0,0,1,48,59.68a20,20,0,0,1-8.42,9.52,19.63,19.63,0,0,1-23.87-3.63,19.44,19.44,0,0,1-2.24-23.95,20.1,20.1,0,0,1,4.29-4.76,19.19,19.19,0,0,1,5.59-3.08A19.7,19.7,0,0,1,36,33.56l.29.09-.25.19a9.15,9.15,0,0,0-3.54,6l0,.2-.2,0a11.81,11.81,0,0,0-3.8,0,11.46,11.46,0,0,0-3.61,1.13,12.06,12.06,0,0,0-6.6,12.45,11.61,11.61,0,0,0,1.07,3.57,11.39,11.39,0,0,0,2.09,3.08,11.75,11.75,0,0,0,6.46,3.56,12.18,12.18,0,0,0,12.87-5.94,12.91,12.91,0,0,0,1.35-3.57A13.88,13.88,0,0,0,42.29,50.41Z" fill="#128bc7"/><path d="M38.31,7.53A11.71,11.71,0,1,0,50,19.25,11.71,11.71,0,0,0,38.31,7.53Zm0,20.2a8.49,8.49,0,1,1,8.49-8.49A8.49,8.49,0,0,1,38.31,27.73Z"/><path d="M45,35.71a6.49,6.49,0,1,0,1.81,1.74A5.57,5.57,0,0,1,45,35.71ZM41.49,43.6a2.43,2.43,0,1,1,2.43-2.43A2.43,2.43,0,0,1,41.49,43.6Z"/><path d="M49.62,23.49a9.15,9.15,0,0,0-5.13,1.56A8.53,8.53,0,0,1,43,26.33a9.19,9.19,0,1,0,6.64-2.84Zm0,14.73a5.54,5.54,0,1,1,5.54-5.54A5.54,5.54,0,0,1,49.62,38.22Z"/></g></svg>