<svg xmlns="http://www.w3.org/2000/svg" xmlns:xlink="http://www.w3.org/1999/xlink" viewBox="0 0 71 80"><defs><clipPath id="clip-path"><rect x="2.83" y="15.29" width="65.33" height="49.42" fill="none"/></clipPath></defs><title>1</title><g id="file"><path d="M58.21,20.87c-.95-.75-5.35-.07-6.61-.07q-3.43,0-6.85.11a95.72,95.72,0,0,1-14.84-.16,5.76,5.76,0,0,1-.71-.14,4.5,4.5,0,0,1-3.81-3.08,4.52,4.52,0,0,1-.79-.91,5.36,5.36,0,0,1-1-.17,4.59,4.59,0,0,1-.59,0c-2.44,0-4.89.08-7.33.08a4.8,4.8,0,0,1-1.7-.32,4.35,4.35,0,0,1-1.85,1.45,4.36,4.36,0,0,1-1.4,1.21,4.53,4.53,0,0,1-4.39,2.82l-.4,0a4.68,4.68,0,0,1-2,.65V56.76H60.55V22A5.28,5.28,0,0,1,58.21,20.87Z" fill="#98c03d"/><g clip-path="url(#clip-path)"><path d="M66,27H62.44c-.4,0-.34-.6-.34-.6v-1.8a4.29,4.29,0,0,0-4.28-4.28H28.52c-.2,0-.43-.4-.86-1.23l-.19-.37C26,15.89,24,15.29,22.67,15.29H15.05c-1.93,0-3.08,1.12-4.43,3.33l-.26.44c-.44.74-.77,1.26-1,1.26H7.11a4.29,4.29,0,0,0-4.28,4.28V60.19a4.29,4.29,0,0,0,3.49,4.21,2.36,2.36,0,0,0,.79.13H59.35a3.19,3.19,0,0,0,3-2.53l5.78-32.48A2.08,2.08,0,0,0,66,27ZM7.11,23.74H9.34c2.22,0,3.27-1.77,4-2.94l.23-.39c.69-1.12,1.23-1.69,1.88-1.69h7.25c.23,0,.92,0,1.76,1.6l.18.34c.63,1.23,1.59,3.08,3.91,3.08H57.81a.87.87,0,0,1,.86.86v1.71s.05.69-.34.69H13.79a3.19,3.19,0,0,0-3,2.53L6.48,53.67s-.22.81-.22-.69V24.59a.87.87,0,0,1,.86-.86Zm0,0"/></g></g></svg>