<svg xmlns="http://www.w3.org/2000/svg" viewBox="0 0 71 80"><title>1</title><g id="shortcut"><path d="M42.08,64.44h2.65v5a7,7,0,0,0,.2,2,1.79,1.79,0,0,0,.65.89,1.87,1.87,0,0,0,1.1.32,1.93,1.93,0,0,0,1.11-.31,1.84,1.84,0,0,0,.68-.92,7.09,7.09,0,0,0,.16-1.93V64.44h2.63v4.43a10.85,10.85,0,0,1-.43,3.75,4.08,4.08,0,0,1-1.56,1.89,4.76,4.76,0,0,1-2.62.66,4.64,4.64,0,0,1-2.78-.77,4.07,4.07,0,0,1-1.5-2.14,13,13,0,0,1-.31-3.46Z" fill="#60439a"/><path d="M53.29,64.44h2.25v1.32a2.81,2.81,0,0,1,1-1.18,2.35,2.35,0,0,1,1.33-.4,2.45,2.45,0,0,1,1.07.27l-.82,2.26a1.8,1.8,0,0,0-.76-.23,1.2,1.2,0,0,0-1,.75,6.86,6.86,0,0,0-.42,2.94V74.9H53.29Z" fill="#60439a"/><path d="M59.92,60.4h2.63V74.9H59.92Z" fill="#60439a"/></g><g id="file"><path d="M30.51,41.22l2.74,1.6A12.57,12.57,0,0,0,50.38,38.3l7.26-12.46A12.57,12.57,0,0,0,53.12,8.7L50.38,7.1a12.57,12.57,0,0,0-17.14,4.52l-4.58,7.86" fill="none" stroke="#000" stroke-linecap="round" stroke-linejoin="round" stroke-width="8.01"/><path d="M37.85,33.27l-2.74-1.6A12.57,12.57,0,0,0,18,36.19L10.72,48.66a12.57,12.57,0,0,0,4.52,17.14L18,67.39a12.57,12.57,0,0,0,17.14-4.52l4.49-7.71" fill="none" stroke="#000" stroke-linecap="round" stroke-linejoin="round" stroke-width="8.01"/></g></svg>