<svg xmlns="http://www.w3.org/2000/svg" viewBox="0 0 71 80"><title>1</title><g id="file"><path d="M57.8,42.73a49.91,49.91,0,0,1,3.95,5.55h0a50,50,0,0,0-5.55,3.95c-1.39,1.14-1.39,2.46-.14,3,1,.4,1.8.78,2.25,1,1.55.64,2.13,2.8,1.3,4.83s-2.77,3.16-4.33,2.52a10.89,10.89,0,0,1-3-3.13c-1.05-1.45-2.67-1.68-3.78-.27a50.39,50.39,0,0,0-3.25,4.68h0a49.49,49.49,0,0,0-3.95-5.55c-1.14-1.39-2.46-1.39-3-.14-.4,1-.78,1.8-1,2.25-.64,1.55-2.8,2.13-4.83,1.3S29.33,59.9,30,58.35a10.9,10.9,0,0,1,3.13-3c1.45-1.05,1.68-2.67.27-3.78a50.53,50.53,0,0,0-4.68-3.25h0a50.35,50.35,0,0,1,3.25-4.68c1.1-1.41,2.73-1.18,3.78.27a10.89,10.89,0,0,0,3,3.13c1.56.64,3.49-.49,4.33-2.52s.25-4.19-1.3-4.83c-.45-.19-1.28-.57-2.25-1-1.26-.51-1.25-1.84.14-3a50,50,0,0,1,5.55-4h0A49.52,49.52,0,0,1,49.91,35c1.41,1.1,1.18,2.72-.27,3.78a10.83,10.83,0,0,0-3.13,3c-.64,1.56.49,3.49,2.52,4.33s4.19.25,4.83-1.3c.19-.45.56-1.28,1-2.25C55.34,41.34,56.67,41.34,57.8,42.73Z" fill="#fff" stroke="#000" stroke-miterlimit="10" stroke-width="1.17"/><path d="M-.42,53.84a49.91,49.91,0,0,1-3.95-5.55h0a50,50,0,0,0,5.55-3.95c1.39-1.14,1.39-2.46.14-3-1-.4-1.8-.78-2.25-1-1.55-.64-2.13-2.8-1.3-4.83S.57,32.4,2.12,33a10.9,10.9,0,0,1,3,3.13c1.05,1.45,2.67,1.68,3.78.27a50.35,50.35,0,0,0,3.25-4.68h0a49.52,49.52,0,0,0,3.95,5.55c1.14,1.39,2.46,1.39,3,.14.4-1,.78-1.8,1-2.25.64-1.55,2.8-2.13,4.83-1.3s3.16,2.77,2.52,4.33a10.9,10.9,0,0,1-3.13,3C22.83,42.3,22.6,43.92,24,45a50.34,50.34,0,0,0,4.68,3.25h0A50.35,50.35,0,0,1,25.45,53c-1.1,1.41-2.73,1.18-3.78-.27a10.88,10.88,0,0,0-3-3.13c-1.55-.64-3.49.49-4.33,2.52s-.25,4.19,1.3,4.83c.45.19,1.28.57,2.25,1,1.26.51,1.25,1.84-.14,3a50.05,50.05,0,0,1-5.55,4h0a49.56,49.56,0,0,1-4.68-3.25c-1.41-1.1-1.18-2.72.27-3.78a10.84,10.84,0,0,0,3.13-3c.64-1.56-.49-3.49-2.52-4.33s-4.19-.25-4.83,1.3C3.33,52.18,3,53,2.56,54,2,55.23.72,55.23-.42,53.84Z" fill="#fff" stroke="#000" stroke-miterlimit="10" stroke-width="1.17"/><path d="M19.86,6.35a49.94,49.94,0,0,1,4.38-5.21l0,0a49.9,49.9,0,0,0,5.21,4.39c1.45,1.06,2.73.73,2.92-.61.14-1,.3-1.94.37-2.42C33,.85,34.94-.25,37.11,0s3.75,1.89,3.52,3.56a10.9,10.9,0,0,1-2.28,3.72c-1.14,1.38-1,3,.68,3.72a50.26,50.26,0,0,0,5.34,2h0A49.44,49.44,0,0,0,40,18.23c-1.06,1.45-.73,2.73.61,2.92,1,.14,1.94.3,2.42.37,1.66.23,2.77,2.18,2.47,4.35s-1.89,3.75-3.56,3.52a10.92,10.92,0,0,1-3.71-2.28c-1.38-1.14-3-1-3.72.68a50.55,50.55,0,0,0-2,5.34h0a50.37,50.37,0,0,1-5.34-2c-1.64-.72-1.82-2.34-.68-3.73a10.87,10.87,0,0,0,2.28-3.71c.23-1.67-1.35-3.26-3.52-3.56s-4.12.8-4.35,2.47c-.07.48-.23,1.38-.37,2.42-.18,1.34-1.47,1.67-2.92.61a50,50,0,0,1-5.21-4.39v0a49.48,49.48,0,0,1,2-5.34c.71-1.64,2.34-1.83,3.72-.68a10.83,10.83,0,0,0,3.71,2.28c1.67.23,3.26-1.35,3.56-3.52s-.8-4.12-2.47-4.36c-.48-.07-1.39-.22-2.42-.37C19.12,9.08,18.8,7.79,19.86,6.35Z" fill="#fff" stroke="#60439a" stroke-miterlimit="10" stroke-width="1.17"/><path d="M34.25,77.39a49.82,49.82,0,0,1-5.55,3.95v0a50,50,0,0,0-3.95-5.55c-1.14-1.39-2.46-1.39-3-.14-.4,1-.78,1.8-1,2.25C20.16,79.42,18,80,16,79.17s-3.16-2.77-2.52-4.33a10.91,10.91,0,0,1,3.13-3c1.45-1.05,1.68-2.67.27-3.78a50.4,50.4,0,0,0-4.68-3.25h0a49.45,49.45,0,0,0,5.55-3.95c1.39-1.14,1.39-2.46.14-3-1-.4-1.8-.78-2.25-1-1.55-.64-2.13-2.8-1.3-4.83s2.77-3.16,4.33-2.52a10.91,10.91,0,0,1,3,3.13c1.05,1.45,2.67,1.68,3.78.27a50.41,50.41,0,0,0,3.25-4.68h0a50.28,50.28,0,0,1,4.68,3.25c1.41,1.1,1.18,2.73-.27,3.78a10.89,10.89,0,0,0-3.13,3c-.64,1.56.49,3.49,2.52,4.33s4.19.25,4.83-1.3c.19-.45.57-1.28,1-2.25.51-1.26,1.84-1.25,3,.14a50.07,50.07,0,0,1,4,5.55v0A49.69,49.69,0,0,1,42,69.5c-1.1,1.41-2.72,1.18-3.78-.27a10.83,10.83,0,0,0-3-3.13c-1.55-.64-3.49.49-4.33,2.52s-.25,4.19,1.3,4.83c.45.19,1.29.56,2.25,1C35.65,74.92,35.64,76.25,34.25,77.39Z" fill="#fff" stroke="#000" stroke-miterlimit="10" stroke-width="1.17"/></g></svg>