<svg id="shortcut" xmlns="http://www.w3.org/2000/svg" viewBox="0 0 71 80"><title>1</title><path d="M43,5A27.78,27.78,0,0,0,4.61,39,27.8,27.8,0,0,0,39.95,56.19,27.8,27.8,0,0,0,57.13,20.86,27.57,27.57,0,0,0,43,5ZM54.34,20.5,44.16,24a48.22,48.22,0,0,0-5.61-10.84,27.55,27.55,0,0,0,4.12-5.6A25.23,25.23,0,0,1,54.34,20.5ZM32.46,30.71l10.17-3.52a45.64,45.64,0,0,1,2.14,11,28,28,0,0,0-9.33,1.11Zm8-24.18A25.27,25.27,0,0,1,37,11.16a28.94,28.94,0,0,0-2.49-2.74,20,20,0,0,0-5.16-3.74,25.19,25.19,0,0,1,11,1.84ZM23.91,6c2.64-.3,5.74,1.16,8.88,4.2a28.29,28.29,0,0,1,2.45,2.72,25.45,25.45,0,0,1-7.37,4.55Zm12.82,8.94a45.63,45.63,0,0,1,5.07,9.92L31.65,28.36,28.7,19.83a28.08,28.08,0,0,0,8-4.9ZM29.28,29.16,19.11,32.68A45.63,45.63,0,0,1,17,21.74a27.55,27.55,0,0,0,9.34-1.12l3,8.54ZM21.57,6.8l4,11.47a25.39,25.39,0,0,1-8.6,1,28.3,28.3,0,0,1,.25-3.65c.59-4.33,2.12-7.39,4.39-8.79Zm-5.1,2.35a20.19,20.19,0,0,0-1.75,6.12A33.33,33.33,0,0,0,14.45,19a25.64,25.64,0,0,1-5.53-1.56,25.18,25.18,0,0,1,7.55-8.26ZM7.79,19.64a28,28,0,0,0,6.7,1.86,47.82,47.82,0,0,0,2.28,12L6.59,37a25.23,25.23,0,0,1,1.2-17.37ZM7.41,39.36l10.18-3.52a48.18,48.18,0,0,0,5.65,10.9,27.32,27.32,0,0,0-4.11,5.57A25.19,25.19,0,0,1,7.41,39.36Zm14,14a25.37,25.37,0,0,1,3.37-4.61,30.76,30.76,0,0,0,2.45,2.68,20.26,20.26,0,0,0,5.16,3.75,25.31,25.31,0,0,1-11-1.82Zm16.45.51c-2.64.3-5.74-1.16-8.88-4.2A29.05,29.05,0,0,1,26.55,47a25,25,0,0,1,7.35-4.53ZM25.06,45a45.61,45.61,0,0,1-5.12-10l10.17-3.52,3,8.61a27.49,27.49,0,0,0-8,4.89Zm15.14,8L36.26,41.67a25.29,25.29,0,0,1,8.58-1,29.16,29.16,0,0,1-.25,3.58c-.59,4.33-2.12,7.39-4.39,8.79Zm5.1-2.35A20.05,20.05,0,0,0,47,44.57,30.6,30.6,0,0,0,47.31,41a25.34,25.34,0,0,1,5.5,1.54,25,25,0,0,1-7.52,8.21ZM54,40.28a27.74,27.74,0,0,0-6.67-1.85A48.25,48.25,0,0,0,45,26.37l10.18-3.52A25.31,25.31,0,0,1,54,40.28Zm0,0"/><path d="M19.55,62.15h2.57l2.1,6,2.26-6h1.57L30.28,68l2.11-5.88H35L31.16,72.61H29.49l-2.23-6-2.3,6H23.32Z" fill="#128bc7"/><path d="M35.3,62.15h2.57l2.1,6,2.26-6h1.57L46,68l2.11-5.88h2.59L46.91,72.61H45.25l-2.23-6-2.3,6H39.07Z" fill="#128bc7"/><path d="M51.05,62.15h2.57l2.1,6,2.26-6h1.57L61.78,68l2.11-5.88h2.59L62.66,72.61H61l-2.23-6-2.3,6H54.82Z" fill="#128bc7"/></svg>