<svg id="shortcut" xmlns="http://www.w3.org/2000/svg" xmlns:xlink="http://www.w3.org/1999/xlink" viewBox="0 0 71 80"><defs><clipPath id="clip-path"><rect x="-9.3" y="3.82" width="92.63" height="72.37" fill="none"/></clipPath></defs><title>1</title><path d="M68.84,21.06V19.95a5.55,5.55,0,0,1-1.09.11,5,5,0,0,1-2.28-.52,4.5,4.5,0,0,1-3.82-2.23H10.19a4.66,4.66,0,0,1-2.54,2.26l0,.14A12.78,12.78,0,0,1,6.7,22a10,10,0,0,0-.9,5.13c.33,2,1.12,3.12.85,5.24a16.8,16.8,0,0,1-.47,2.36,5.34,5.34,0,0,1,1.48,3.39,7.11,7.11,0,0,1-2.91,6.34A4.65,4.65,0,0,1,2.5,46.59v6.87a5.07,5.07,0,0,1,1.56,3.09,10.73,10.73,0,0,1,1.64.86c.88.47,1.62,1,2.44,1.44.12,0,.25,0,.37,0,3.89,0,8,1.88,11.66,3.1a5.16,5.16,0,0,1,2,1.15H43.21a4.56,4.56,0,0,1,3.71-1.67c4,0,7.22-1.19,11.09-1.9a12.11,12.11,0,0,1,1.32-.16,4.56,4.56,0,0,1,3.85-1.85,4.94,4.94,0,0,1,2.43.59l1.53-.71c-3.24-.91-4.13-4.82-2.71-7.42a5.1,5.1,0,0,1,1.77-4,5,5,0,0,1,2.65-5.07V36.7a5.41,5.41,0,0,1-.94-6.59C64.64,28.11,65,22.34,68.84,21.06Z" fill="#128bc7"/><g clip-path="url(#clip-path)"><path d="M66.33,28.67C66,26.57,66,22.94,68,21.72l.09-.08c1.6-.51,2.7-1.23,1.84-2.2l-23.58-7.1L8.14,17.65s-4.37.63-4,7.42c.21,3.69,1.37,5.51,2.39,6.4l-3.13.95c-.87,1,.24,1.68,1.84,2.19a.64.64,0,0,0,.09.08c2,1.22,1.91,4.84,1.63,7-7,2-4.5,2.64-4.5,2.64L4,44.66c-1.08,1-2.16,2.83-2,6.35.39,6.79,4,7.26,4,7.26l25,8.12,37.71-9.13s2.52-.65-4.5-2.65c-.28-2.1-.32-5.73,1.63-6.95a.64.64,0,0,0,.09-.08c1.6-.51,2.7-1.23,1.84-2.19l-1.64-.5c1.09-.66,2.74-2.38,3-6.86.18-3.07-.63-4.88-1.55-5.94l3.24-.79s2.52-.65-4.49-2.64Zm-31.54-.09,6.34-1.3,21.43-4.41,3.19-.65a11,11,0,0,0-.81,6.06c0,.37.08.71.12,1l-3.49.87-27,6.73ZM7.55,35.19l3.19.65,20.58,4.23,1.8.37,5.39,1.11.26,8.27L11,42.91l-2.74-.68c0-.26.08-.6.13-1a11.12,11.12,0,0,0-.81-6.06ZM6.31,24.74c0-1.81.28-3.12.94-3.78a1.7,1.7,0,0,1,1.24-.51,1.92,1.92,0,0,1,.32,0l16.45,5.36,8.2,2.68-.27,8.32-23-6.46L8.94,30l-.15,0c-.1,0-2.37-.22-2.49-5.28Zm24.77,38L6.84,56l-.15,0c-.1,0-2.38-.21-2.48-5.27,0-1.81.28-3.12.94-3.78a1.68,1.68,0,0,1,1.24-.51,1.9,1.9,0,0,1,.31,0h0l24.66,8Zm31.76-8.55c0,.37.08.71.12,1L32.42,62.79l.26-8.26,6.53-1.35,1,.23,3.61-1.17,16.66-3.43,3.19-.65a11,11,0,0,0-.81,6.06ZM64.52,43l-.16,0-2.31.65L40.12,49.81l-.27-8.32L47,39.14l17.42-5.68a1.82,1.82,0,0,1,1.58.48c.65.67,1,2,.94,3.78C66.88,42.78,64.6,43,64.52,43Zm0,0"/></g></svg>