<svg xmlns="http://www.w3.org/2000/svg" viewBox="0 0 71 80"><title>1</title><g id="file"><ellipse cx="33.46" cy="28.28" rx="3.35" ry="8.56" transform="translate(-5.26 48.77) rotate(-68.1)" fill="#e59b3a" stroke="#e59b3a" stroke-linecap="round" stroke-linejoin="round" stroke-width="1.07"/><ellipse cx="33.95" cy="50.01" rx="2.89" ry="13.75" transform="matrix(0.25, -0.97, 0.97, 0.25, -22.97, 70.35)" fill="#e59b3a" stroke="#e59b3a" stroke-linecap="round" stroke-linejoin="round" stroke-width="1.27"/><path d="M8.53,33.48l1.38-5.91.67-3c.11-.49.21-1,.34-1.48l.43-1.47a18.37,18.37,0,0,1,19-12.94,52.66,52.66,0,0,1,6.07,1.05l6,1.22a19.85,19.85,0,0,1,11,6.19A18.81,18.81,0,0,1,58,29c.11,2.17-.32,4.34-.18,6,.13.84.17.85.86,1.23a17,17,0,0,0,2.62.81c.47.12,1,.24,1.53.41a8.35,8.35,0,0,1,1.7.68,3.87,3.87,0,0,1,1.68,1.72,4.61,4.61,0,0,1,.37,2.2A19.65,19.65,0,0,1,66,45.28l-.66,3-1.31,5.94-.65,3a23.21,23.21,0,0,1-1,3.15A19.7,19.7,0,0,1,40.66,72.39c-4.07-.85-7.95-1.82-11.92-2.76l-5.91-1.48c-1-.24-2-.51-2.95-.77l-.74-.2-.79-.26a13.11,13.11,0,0,1-1.55-.58,19,19,0,0,1-9.38-8.73,18.76,18.76,0,0,1-1.95-6,20.2,20.2,0,0,1,.16-6.25,30.43,30.43,0,0,1,.69-3c.25-1,.52-2,.76-2.94Zm.39.09c-.79,4-1.73,7.93-2.3,11.88A17.08,17.08,0,0,0,9.28,56.54,16.48,16.48,0,0,0,18,63.24a10.23,10.23,0,0,0,1.32.39l.67.17.74.14c1,.19,2,.37,3,.58l5.92,1.21,11.76,2.56A16,16,0,0,0,51.82,66.7a16.15,16.15,0,0,0,7.3-7.79,19.77,19.77,0,0,0,.93-2.59l.73-2.94,1.47-5.88L63,44.58a17.69,17.69,0,0,0,.55-2.71,1.82,1.82,0,0,0-.06-.77c0-.11-.13-.22-.42-.4A5.54,5.54,0,0,0,62,40.24c-.43-.14-.89-.26-1.39-.41a18.73,18.73,0,0,1-3.13-1.08,3.9,3.9,0,0,1-2.34-3.52A19.25,19.25,0,0,1,55.25,32c.07-.53.09-1,.12-1.45l.05-.71v-.71a16.35,16.35,0,0,0-3.78-10.41A17.68,17.68,0,0,0,42,12.94l-5.88-1.46a52,52,0,0,0-5.83-1.27A17.43,17.43,0,0,0,19,12.59a17.74,17.74,0,0,0-7.25,9.19l-.44,1.44c-.13.49-.24,1-.35,1.47l-.68,3Z"/><path d="M33.25,53.12a66.85,66.85,0,0,0,7.62,1.5l1.93.26a5.24,5.24,0,0,0,1.72-.07,2.28,2.28,0,0,0,1.9-1.88,2.13,2.13,0,0,0-.89-2.31A3.65,3.65,0,0,0,44.19,50c-.22-.05-.59-.12-.89-.17l-1-.18-7.63-1.46q-3.82-.7-7.65-1.35l-1.89-.36a3.8,3.8,0,0,0-1.21,0,1.43,1.43,0,0,0-.7.26,1.16,1.16,0,0,0-.42.61,2.27,2.27,0,0,0-.16.86A1.22,1.22,0,0,0,23,49a3.4,3.4,0,0,0,1.12.83c.49.24,1.18.49,1.76.74A54.76,54.76,0,0,0,33.25,53.12Zm-.09.39a55.6,55.6,0,0,0-7.79-.9c-.68-.06-1.27-.05-2-.16A6.21,6.21,0,0,1,21,51.61a4.58,4.58,0,0,1-1.89-2.35,5.2,5.2,0,0,1,4.28-6.91,7.36,7.36,0,0,1,2.65.15l1.9.5q3.75,1.08,7.51,2.1l7.53,2,.94.26c.32.09.59.15,1,.28A6,6,0,0,1,47,48.81a4.46,4.46,0,0,1,1.4,2.14,4.36,4.36,0,0,1,0,2.51,3.9,3.9,0,0,1-3.64,2.84A6.33,6.33,0,0,1,42.56,56l-1.87-.59A67.07,67.07,0,0,0,33.16,53.51Z"/><path d="M32.77,31.78a20.69,20.69,0,0,0,5.11.93A3.11,3.11,0,0,0,40,32.16a2.62,2.62,0,0,0,.87-1.67,2.55,2.55,0,0,0-.21-1.79,1.88,1.88,0,0,0-1.3-.8L34.27,27c-1.7-.3-3.41-.53-5.1-.78a1.62,1.62,0,0,0-1.12.14,1.41,1.41,0,0,0-.58.79,3.42,3.42,0,0,0-.3,1.27A1.82,1.82,0,0,0,28,29.77,15.78,15.78,0,0,0,32.77,31.78Zm-.09.39c-1.72-.32-3.44-.21-5.39-.39a4.38,4.38,0,0,1-3.09-1.87,5,5,0,0,1-.58-3.82,5.87,5.87,0,0,1,.76-1.82A4.8,4.8,0,0,1,26,22.75a5.21,5.21,0,0,1,3.95-.41c1.69.53,3.37,1.07,5.06,1.55l5.1,1.46a4.34,4.34,0,0,1,2.65,2.35,4.73,4.73,0,0,1,0,3.31,4,4,0,0,1-2.07,2.46,4.25,4.25,0,0,1-3,.07C36,33.06,34.4,32.47,32.68,32.17Z"/></g></svg>