<svg id="shortcut" xmlns="http://www.w3.org/2000/svg" viewBox="0 0 71 80"><title>1</title><path d="M1.51,45.5C3.22,41.37,5,37.27,6.77,33.17S10.28,25,12.1,20.88l.95-2.13L13.73,21c1.47,5,3,9.94,4.38,14.92l-2.28,0,2.26-7.54,1.09-3.65,1.39,3.58L27.08,45l-2.88.19,5-21.77,1.34-5.86,1.73,5.76L36,35.8l-2.8-.35,3-4.86,1.38-2.25,1.26,2.3,3.44,6.28-2.6.11,1.58-3.36,1.15-2.44,1.37,2.29,3.45,5.79-2.37.09,7.24-13.64,1-1.93L54,25.74l4.77,9.74c1.6,3.24,3.13,6.52,4.7,9.77h-1L66,38.68c1.14-2.2,2.34-4.37,3.5-6.56-1,2.27-1.94,4.56-3,6.82l-3,6.79-.43,1-.54-1c-1.76-3.16-3.55-6.3-5.27-9.48l-5.2-9.51h2l-6.8,13.86-1.07,2.17-1.3-2.08L41.31,35l2.51-.15-1.51,3.39-1.17,2.62-1.44-2.51-3.55-6.22,2.64,0-2.95,4.88-1.78,3L33,36.7,29.21,24.21l3.07-.1L27.14,45.84,26,50.74,24.26,46,18.12,29.22l2.49-.07L18.1,36.61l-1.29,3.82-1-3.86c-1.29-5-2.52-10.05-3.77-15.08l1.62.14c-2,4-4,8-6,12S3.59,41.54,1.51,45.5Z"/><line x1="13.68" y1="55.25" x2="59.38" y2="55.25" fill="none" stroke="#98c03d" stroke-linecap="round" stroke-miterlimit="10"/><line x1="13.68" y1="61.63" x2="59.38" y2="61.63" fill="none" stroke="#98c03d" stroke-linecap="round" stroke-miterlimit="10"/><line x1="13.68" y1="68.63" x2="59.38" y2="68.63" fill="none" stroke="#98c03d" stroke-linecap="round" stroke-miterlimit="10"/></svg>