<svg xmlns="http://www.w3.org/2000/svg" viewBox="0 0 71 80"><title>1</title><g id="file"><path d="M64.68,28.44c-2.4,1.52-4.69,3-6.91,4.48s-4.37,2.87-6.54,4.23a.87.87,0,0,1-1.34-.71v-.06l-.26-9.75a4.12,4.12,0,0,0-1.76-3.21,3.9,3.9,0,0,0-1.71-.69,2.85,2.85,0,0,0-.46,0H43.93c-6.52.07-13,.09-19.55-.08l-9.77-.31-4.89-.16-1.22,0a6,6,0,0,0-1.08.05,4.65,4.65,0,0,0-2,.83,4.78,4.78,0,0,0-1.92,3.78l0,4.89c0,3.26,0,6.52.05,9.77s.14,6.52.22,9.77l.13,4.89a4.38,4.38,0,0,0,1.81,3.44,4.33,4.33,0,0,0,1.79.75,5.86,5.86,0,0,0,1,0l1.22,0,4.89-.1c3.26-.07,6.52-.13,9.77-.16l19.55-.2h1.74a2.55,2.55,0,0,0,.42,0,3.53,3.53,0,0,0,1.55-.66,3.81,3.81,0,0,0,1.54-2.92l.1-9.75v0A1.48,1.48,0,0,1,50.78,45a1.49,1.49,0,0,1,.74.21q6.92,4.15,13.81,8.35l-1.75,1c0-2.1.14-4.2.23-6.32l.29-6.41.32-6.59Zm.15-.26.26,6.34L65.4,41l.29,6.7c.09,2.25.19,4.52.23,6.79a1.15,1.15,0,0,1-1.7,1l-.05,0Q57.07,51.69,50,47.76l2.23-1.29.09,9.8a6.82,6.82,0,0,1-2.81,5.45,6.74,6.74,0,0,1-2.9,1.23,5.57,5.57,0,0,1-.79.09l-.39,0H43.93l-19.55-.2c-3.26,0-6.52-.08-9.77-.16l-4.89-.1-1.22,0a7.61,7.61,0,0,1-1.43-.16,6.43,6.43,0,0,1-2.6-1.29,6.28,6.28,0,0,1-2.3-5l.13-4.89c.08-3.26.19-6.52.22-9.77s.06-6.52.05-9.77l0-4.89A5.88,5.88,0,0,1,4.72,22a6.12,6.12,0,0,1,2.43-1.21,7.37,7.37,0,0,1,1.35-.16l1.22,0,4.89-.16,9.77-.31c6.52-.17,13-.14,19.55-.08h1.53l.38,0a5.26,5.26,0,0,1,.75.09,6.36,6.36,0,0,1,2.74,1.21,6.5,6.5,0,0,1,2.59,5.15c-.05,3.3-.15,6.53-.25,9.79l-1.34-.77c2.48-1.33,5-2.63,7.43-3.83S62.57,29.35,64.82,28.18Z"/><path d="M20.76,32.38c.12,2.73.25,5.31.34,7.82,0,1.25.07,2.5.07,3.74s-.06,2.47-.11,3.73l-.45-.29c1.41-.58,2.83-1.14,4.22-1.77s2.76-1.29,4.12-2L33,41.56c1.36-.68,2.73-1.35,4.11-2v.89c-2.74-1.19-5.38-2.44-8.06-3.81Zm-.05-.08L24.78,34,29,35.7c2.85,1.18,5.74,2.48,8.54,3.85h0a.49.49,0,0,1,0,.88c-1.39.62-2.79,1.23-4.19,1.83L29.12,44q-2.11.89-4.18,1.86c-1.38.65-2.73,1.36-4.08,2.06a.31.31,0,0,1-.45-.26v0c-.06-1.3-.12-2.62-.11-3.94s0-2.63.07-3.93C20.45,37.2,20.59,34.67,20.7,32.29Z" fill="#60439a"/></g></svg>