<svg xmlns="http://www.w3.org/2000/svg" viewBox="0 0 71 80"><title>1</title><g id="file"><path d="M55.89,12.36,49,16.87l-6.53,4.37c-2.14,1.39-4.23,2.81-6.33,4.13S31.94,28,29.81,29.28a1.66,1.66,0,0,1-1.15.2l-.09,0-.19,0H26.67l-2.29,0c-1.53,0-3.05,0-4.58,0-3.05,0-6.11-.07-9.16-.18l-2.29-.1c-.72,0-1.71-.1-1.84-.05a1.16,1.16,0,0,0-.8.64,1.25,1.25,0,0,0-.09.26l0,.15v.29l-.06,1.15c-.16,3.05-.32,6.11-.41,9.16S5,46.93,4.94,50V51.7a2.41,2.41,0,0,0,0,.45,1.88,1.88,0,0,0,1,1.3,1.73,1.73,0,0,0,.81.18L8,53.57l2.29-.12c6.1-.38,12.19-.84,18.28-1.3l-.36.06a3.94,3.94,0,0,1,.69-.17,2.49,2.49,0,0,1,1.08.07,2,2,0,0,1,.76.43,2.12,2.12,0,0,1,.51.69c0,.09.08.2.06.14a1,1,0,0,0-.07-.15,1.35,1.35,0,0,0-.11-.17,1.46,1.46,0,0,0-.35-.32,1.54,1.54,0,0,0-1.49-.13,1.43,1.43,0,0,0-.27.16l-.11.09c-.2.19-.15.16-.16.17l0,0a1.41,1.41,0,0,1,1.89-.64l.19.09c4.41,2.17,8.76,4.44,13.12,6.7l6.54,3.39c2.17,1.14,4.37,2.24,6.52,3.42l-3.14,1.87V61.11L54,54.4c.09-4.47.31-9,.5-13.54l.7-14,.36-7.2Zm.2-.35,1.38,27.13c.2,4.71.41,9.47.5,14.27l.14,7.2v7.2A2.13,2.13,0,0,1,55,69.7h0c-2.17-1.16-4.29-2.39-6.43-3.59l-6.42-3.61c-4.28-2.41-8.57-4.8-12.8-7.3l2.07-.54-.1.15a2.12,2.12,0,0,1-.31.35l-.13.11a1.69,1.69,0,0,1-.3.18A1.58,1.58,0,0,1,28.65,55a1.68,1.68,0,0,1-.22-.39c0-.13,0-.09,0-.08a1.08,1.08,0,0,0,.25.32A1,1,0,0,0,29,55c.2,0,.21,0,.18,0L29,55l-.29,0h-.07c-6.12-.09-12.24-.18-18.35-.19L8,54.93H6.85a3.27,3.27,0,0,1-1.4-.34,3.14,3.14,0,0,1-1.67-2.2,3.7,3.7,0,0,1-.06-.69V50c0-3.05,0-6.11-.15-9.16s-.25-6.11-.41-9.16l-.06-1.15v-.29c0-.13,0-.28,0-.42A3.81,3.81,0,0,1,3.27,29a3.86,3.86,0,0,1,2.36-2.45,4.9,4.9,0,0,1,1.57-.25l1.15,0,2.29-.1c3.05-.11,6.11-.18,9.16-.18,1.53,0,3.05,0,4.58,0l2.29,0h1.72a4.19,4.19,0,0,1,.95.12l-1.24.19c2.37-1.34,4.79-2.61,7.19-3.89s4.81-2.47,7.18-3.68Z"/><path d="M59.75,33.45a7.08,7.08,0,0,1,4.11,3.1,11.36,11.36,0,0,1,1,2.43,18.93,18.93,0,0,1,.61,2.52,7.59,7.59,0,0,1,0,2.64,7.84,7.84,0,0,1-.86,2.52,8.64,8.64,0,0,1-3.74,3.59,0,0,0,0,1-.06,0,.05.05,0,0,1,0-.06,15.52,15.52,0,0,0,2.93-4,10.69,10.69,0,0,0,1.24-4.67,6.18,6.18,0,0,0-.39-2.45A8.15,8.15,0,0,0,63.24,37a16.6,16.6,0,0,0-3.52-3.45,0,0,0,0,1,0-.08Z" fill="#128bc7"/><path d="M57.57,34.55a6.16,6.16,0,0,1,3.57,2.7A9.87,9.87,0,0,1,62,39.36a16.47,16.47,0,0,1,.53,2.19,6.6,6.6,0,0,1,0,2.29A6.82,6.82,0,0,1,61.75,46a7.55,7.55,0,0,1-3.25,3.13,0,0,0,0,1-.05,0,0,0,0,0,1,0,0A13.35,13.35,0,0,0,61,45.64a9.29,9.29,0,0,0,1.08-4.06,5.37,5.37,0,0,0-.34-2.13,7.08,7.08,0,0,0-1.14-1.83,14.43,14.43,0,0,0-3.06-3,0,0,0,0,1,0-.07Z" fill="#128bc7"/><path d="M62,32.64A7.76,7.76,0,0,1,66.54,36a12.45,12.45,0,0,1,1.06,2.67,20.75,20.75,0,0,1,.67,2.76,8.15,8.15,0,0,1,0,2.89,8.6,8.6,0,0,1-.94,2.76,9.47,9.47,0,0,1-4.1,3.94.05.05,0,0,1-.07,0,.06.06,0,0,1,0-.06,17,17,0,0,0,3.21-4.35,11.77,11.77,0,0,0,1.36-5.11,6.77,6.77,0,0,0-.43-2.69,8.93,8.93,0,0,0-1.44-2.3A18.19,18.19,0,0,0,62,32.73a.05.05,0,0,1,0-.09Z" fill="#128bc7"/></g></svg>