<svg id="shortcut" xmlns="http://www.w3.org/2000/svg" viewBox="0 0 71 80"><title>1</title><path d="M0,69.23A142.85,142.85,0,0,0,22.42,65a83.33,83.33,0,0,0,10.77-3.61l1.32-.55,1.27-.65c.83-.46,1.69-.87,2.5-1.36a34.38,34.38,0,0,0,4.56-3.4,20.16,20.16,0,0,0,3.8-4.15,11.42,11.42,0,0,0,1.91-5c.36-3.59-1.35-7-3.21-10.27a45.59,45.59,0,0,1-2.69-5.24,12.1,12.1,0,0,1-.79-3.06,8.16,8.16,0,0,1,.37-3.33,10.77,10.77,0,0,1,4.06-4.85,25.89,25.89,0,0,1,2.57-1.56l2.55-1.33.9,1.61-2.47,1.47a23.82,23.82,0,0,0-2.27,1.54,8.7,8.7,0,0,0-3.15,3.87,6.08,6.08,0,0,0-.25,2.34,11,11,0,0,0,.63,2.49A44,44,0,0,0,47.19,35a31.67,31.67,0,0,1,2.37,5.41A12.91,12.91,0,0,1,50,46.47a13.08,13.08,0,0,1-2.56,5.43A25.93,25.93,0,0,1,43.29,56a52.27,52.27,0,0,1-4.64,3.47c-.81.53-1.64,1-2.47,1.52L35,61.73l-1.28.68a52.54,52.54,0,0,1-10.73,4.46A69.6,69.6,0,0,1,11.56,69.1,63.2,63.2,0,0,1,0,69.44Z"/><polygon points="65.22 10.07 50.62 28.13 50.86 17.98 42.16 12.74 65.22 10.07"/><path d="M-.09,33.76a5,5,0,0,1,1.89-2.52l.51.85a6.25,6.25,0,0,0-1.2.73,5.12,5.12,0,0,0-1,1Z"/><path d="M7.25,29.77a16.49,16.49,0,0,1,2.78.37,16.41,16.41,0,0,1,2.63.85l-.55,1.56c-.83-.24-1.66-.46-2.48-.65a17.06,17.06,0,0,0-2.48-.43Z"/><path d="M17.42,33.58a27.87,27.87,0,0,1,4.35,3.24l-.52.52a12.58,12.58,0,0,0-4.19-3.08Z"/><path d="M25.31,41a30,30,0,0,1,2.4,4.89l-1.83.69c-.57-1.67-1.19-3.28-1.9-4.85Z"/><path d="M29.71,50.75a12.66,12.66,0,0,0,2.61,4.12l-1.16,1.34a12.58,12.58,0,0,1-3.39-4.58Z"/><path d="M36.62,57.14a20,20,0,0,0,2.93.49v.2a13.66,13.66,0,0,1-3.07.26Z"/><path d="M49.2,42.66a2.1,2.1,0,0,0-.3.2c-.08.06-.18.18-.13.17s0-.13,0-.12,0,0,.08,0l.3.06c.45.05.95.07,1.43.08l3,.06-.12,1.67a24.22,24.22,0,0,1-3-.55,8.58,8.58,0,0,1-1.5-.52,2.51,2.51,0,0,1-.39-.23,1,1,0,0,1-.21-.21.44.44,0,0,1,0-.47.67.67,0,0,1,.45-.28,2.38,2.38,0,0,1,.4-.06Z" fill="#98c03d"/><path d="M59.62,43.72a6.31,6.31,0,0,1,2.83,1.59,5.21,5.21,0,0,1,1.39,2.85l-.59.11a3.75,3.75,0,0,0-1.34-2.36A5.17,5.17,0,0,0,59.36,45Z" fill="#98c03d"/><path d="M63.62,54.3c-.28,2-.73,4-1.11,5.9l-1.83-.41c.49-2,1.16-3.87,1.77-5.75Z" fill="#98c03d"/><path d="M62.12,65.77a6.19,6.19,0,0,0,.31,1.2A13.3,13.3,0,0,0,63,68.24a12.81,12.81,0,0,0,1.51,2.33l-1.31,1.19a12.86,12.86,0,0,1-2-2.55,15.35,15.35,0,0,1-.73-1.44A6.19,6.19,0,0,1,60,66.1Z" fill="#98c03d"/><path d="M68.92,74.1A12.88,12.88,0,0,0,71,75l0,.2a9.56,9.56,0,0,1-2.34-.31Z" fill="#98c03d"/></svg>