<svg id="shortcut" xmlns="http://www.w3.org/2000/svg" viewBox="0 0 71 80"><title>1</title><rect x="6.99" y="7.57" width="14.99" height="14.99" transform="translate(3.34 -2.62) rotate(11.65)" fill="none" stroke="#000" stroke-linecap="round" stroke-miterlimit="10" stroke-width="1.32"/><path d="M9.27,9.12s4.13,8.44,3.53,10.75c0,0,3.08-8.32,7.71-9.23" fill="none" stroke="#98c03d" stroke-linecap="round" stroke-linejoin="round" stroke-width="1.61"/><rect x="5.99" y="30.4" width="14.99" height="14.99" transform="translate(7.93 -1.94) rotate(11.65)" fill="none" stroke="#000" stroke-linecap="round" stroke-miterlimit="10" stroke-width="1.32"/><rect x="4.16" y="54.9" width="14.99" height="14.99" transform="translate(12.84 -1.07) rotate(11.65)" fill="none" stroke="#000" stroke-linecap="round" stroke-miterlimit="10" stroke-width="1.32"/><path d="M6.44,56.45S10.57,64.9,10,67.2c0,0,3.08-8.32,7.71-9.23" fill="none" stroke="#98c03d" stroke-linecap="round" stroke-linejoin="round" stroke-width="1.61"/><path d="M10.42,34.23s3.68,4.52,4.14,9.44" fill="none" stroke="#c1272d" stroke-linecap="round" stroke-linejoin="round" stroke-width="1.61"/><path d="M18.2,33.78S9.73,39.1,8.78,42.08" fill="none" stroke="#c1272d" stroke-linecap="round" stroke-linejoin="round" stroke-width="1.61"/><line x1="29.29" y1="15.06" x2="65.33" y2="15.06" fill="none" stroke="#000" stroke-linecap="round" stroke-linejoin="round" stroke-width="1.61"/><line x1="29.29" y1="19.87" x2="65.33" y2="19.87" fill="none" stroke="#000" stroke-linecap="round" stroke-linejoin="round" stroke-width="1.61"/><line x1="28.92" y1="33.15" x2="64.97" y2="33.15" fill="none" stroke="#000" stroke-linecap="round" stroke-linejoin="round" stroke-width="1.61"/><line x1="28.92" y1="37.89" x2="64.97" y2="37.89" fill="none" stroke="#000" stroke-linecap="round" stroke-linejoin="round" stroke-width="1.61"/><line x1="28.92" y1="56.45" x2="64.97" y2="56.45" fill="none" stroke="#000" stroke-linecap="round" stroke-linejoin="round" stroke-width="1.61"/><line x1="28.92" y1="61.83" x2="64.97" y2="61.83" fill="none" stroke="#000" stroke-linecap="round" stroke-linejoin="round" stroke-width="1.61"/></svg>