<svg xmlns="http://www.w3.org/2000/svg" viewBox="0 0 71 80"><title>1</title><g id="file"><polygon points="14.86 3.86 -2.95 69.72 44.72 82.62 59.92 26.42 52.32 14.13 14.86 3.86" fill="#fff" stroke="#000" stroke-linecap="round" stroke-linejoin="round" stroke-width="1.94"/><polyline points="59.63 26.34 48.43 23.32 50.89 14.22" fill="#fff" stroke="#000" stroke-linecap="round" stroke-linejoin="round" stroke-width="2.04"/><line x1="33.85" y1="23.58" x2="52.87" y2="28.73" fill="none" stroke="#000" stroke-linecap="round" stroke-linejoin="round" stroke-width="1.94"/><line x1="14.28" y1="30.67" x2="49.75" y2="40.26" fill="none" stroke="#000" stroke-linecap="round" stroke-linejoin="round" stroke-width="1.94"/><line x1="11.16" y1="42.21" x2="46.63" y2="51.8" fill="none" stroke="#000" stroke-linecap="round" stroke-linejoin="round" stroke-width="1.94"/><line x1="8.04" y1="53.74" x2="43.51" y2="63.33" fill="none" stroke="#000" stroke-linecap="round" stroke-linejoin="round" stroke-width="1.94"/><line x1="4.92" y1="65.28" x2="31.73" y2="72.53" fill="none" stroke="#000" stroke-linecap="round" stroke-linejoin="round" stroke-width="1.94"/><path d="M27.2,13.84,24,25.51a1.7,1.7,0,0,0-.07.38.48.48,0,0,0,.1.3,1.14,1.14,0,0,0,.32.29,4.7,4.7,0,0,0,.65.33.37.37,0,0,1,.23.47l-.07.2a1.47,1.47,0,0,1-.09.21l-1.5-.5q-.8-.25-1.42-.43T20.7,26.4l-1.52-.33a.61.61,0,0,1,0-.24c0-.09,0-.16,0-.2a.55.55,0,0,1,.13-.24.43.43,0,0,1,.34-.06,2.32,2.32,0,0,0,1.11,0,.84.84,0,0,0,.38-.57L24.4,13.08l-2-.54a4.06,4.06,0,0,0-1.09-.17,2.23,2.23,0,0,0-.86.17,2.69,2.69,0,0,0-.76.51,9.73,9.73,0,0,0-.79.84.34.34,0,0,1-.39.11,1,1,0,0,1-.29-.14,1.83,1.83,0,0,1-.24-.17l.53-.87c.15-.25.28-.51.4-.76s.28-.61.38-.87a2.67,2.67,0,0,1,.27-.54.36.36,0,0,1,.41-.1c.16,0,.48.16.95.33s1,.36,1.72.55l6.83,1.88q1,.27,1.74.41t1,.21a.39.39,0,0,1,.3.3,2.41,2.41,0,0,1-.06.6,7.41,7.41,0,0,0-.11.95q0,.42-.06.86c0,.29,0,.63,0,1l-.3,0a1,1,0,0,1-.31,0,.39.39,0,0,1-.3-.3,9.81,9.81,0,0,0-.25-1.13,2.67,2.67,0,0,0-.39-.83,2.22,2.22,0,0,0-.65-.58,3.93,3.93,0,0,0-1-.41Z" fill="#60439a"/></g></svg>