<svg xmlns="http://www.w3.org/2000/svg" viewBox="0 0 71 80"><title>1</title><g id="file"><path d="M49.29,33.81a4.92,4.92,0,0,1-2.46-.12,4.86,4.86,0,0,1-2.15-1.21,4.86,4.86,0,0,1,2.46.12A4.92,4.92,0,0,1,49.29,33.81Z" fill="#60439a"/><path d="M50.86,32.23A7,7,0,0,1,47.92,32a6.87,6.87,0,0,1-2.62-1.34,6.87,6.87,0,0,1,2.93.25A7,7,0,0,1,50.86,32.23Z" fill="#60439a"/><path d="M51.82,30.37a10.41,10.41,0,0,1-3.6-.44,10.29,10.29,0,0,1-3.28-1.53,10.29,10.29,0,0,1,3.6.44A10.41,10.41,0,0,1,51.82,30.37Z" fill="#60439a"/><path d="M17.85,22.68,15,19.34,12.1,15.8l-.36-.44.46-.41a37.42,37.42,0,0,1,8-5.41,31.63,31.63,0,0,1,9.26-3.07A23.2,23.2,0,0,1,39.35,7,22.38,22.38,0,0,1,48,11.86a20,20,0,0,1,3.36,3.68,15.39,15.39,0,0,1,2.14,4.58,14.49,14.49,0,0,1-1,9.73,31.4,31.4,0,0,1-5.34,8,52.33,52.33,0,0,1-7,6.53l0,0-.06,0a30.64,30.64,0,0,0-5.16,3.32,29.05,29.05,0,0,0-4.4,4.21A20.45,20.45,0,0,0,27.43,57a15.74,15.74,0,0,0-1,5.67v1.53l-1.49-.4-6.46-1.72-1.09-.29.17-1.13a35.82,35.82,0,0,1,1.26-5.37,36.64,36.64,0,0,1,2-5.1,32.67,32.67,0,0,1,2.79-4.78,24.08,24.08,0,0,1,3.77-4.15,19.47,19.47,0,0,1,2.24-1.73c.4-.29.75-.53,1.1-.76l1.05-.71a32.26,32.26,0,0,0,3.88-3.2,22.86,22.86,0,0,0,3.16-3.81A17,17,0,0,0,40,29c.17-.37.33-.73.46-1.1a8.51,8.51,0,0,0,.31-1l0-.13A9,9,0,0,0,41,25a8.85,8.85,0,0,0-.18-1.79,6.54,6.54,0,0,0-1.55-3.11,7.78,7.78,0,0,0-3-2,14.73,14.73,0,0,0-3.75-1,16.25,16.25,0,0,0-7.78,1.08,19.26,19.26,0,0,0-3.59,1.88,20.38,20.38,0,0,0-1.65,1.21c-.27.21-.53.44-.79.66l-.38.35-.18.18-.09.09A.55.55,0,0,1,17.85,22.68Zm0-.28s-.06,0,0-.05l.08-.1.17-.21.34-.4c.24-.26.47-.52.72-.77a17.44,17.44,0,0,1,1.57-1.41,20.2,20.2,0,0,1,3.56-2.32,17,17,0,0,1,8.39-1.8,16.62,16.62,0,0,1,4.33.79,9.53,9.53,0,0,1,3.94,2.37,8.94,8.94,0,0,1,2.32,4.11,10.67,10.67,0,0,1,.33,2.32,11.16,11.16,0,0,1-.18,2.39l0-.12A10,10,0,0,1,43,28.72c-.15.47-.32.91-.51,1.36a19.3,19.3,0,0,1-1.32,2.52A25.73,25.73,0,0,1,37.74,37a33.59,33.59,0,0,1-4.2,3.59l-1.14.77c-.39.26-.76.51-1.08.74a16.51,16.51,0,0,0-1.94,1.5c-.3.28-.63.53-.92.82l-.85.9c-.59.57-1.06,1.27-1.6,1.9a29.78,29.78,0,0,0-2.64,4.28A35.51,35.51,0,0,0,20.12,61l-.92-1.42,6.39,2L24.1,62.73a16.93,16.93,0,0,1,1.46-6.51,22.26,22.26,0,0,1,3.71-5.37,31.58,31.58,0,0,1,4.87-4.16,38.17,38.17,0,0,1,5.51-3.19l-.08,0a41.39,41.39,0,0,0,6.9-6.3,26.06,26.06,0,0,0,4.9-7.85,13,13,0,0,0,.39-8.76,13.4,13.4,0,0,0-2.11-3.82,21.94,21.94,0,0,0-3.19-3.12,26.28,26.28,0,0,0-3.71-2.52,23,23,0,0,0-4.1-1.71,21.09,21.09,0,0,0-4.37-.8,26.19,26.19,0,0,0-4.48.13A37.41,37.41,0,0,0,13,15.9l.09-.85Z"/><path d="M25.51,73.6A9,9,0,0,1,23,77.86a5.12,5.12,0,0,1-5.22.85A7.1,7.1,0,0,1,14.22,75a8.71,8.71,0,0,1-.85-4.89,6.25,6.25,0,0,1,.9-2.53,6.35,6.35,0,0,1,2-1.94,6.69,6.69,0,0,1,5.52-.79,6.46,6.46,0,0,1,2.47,1.43,5.49,5.49,0,0,1,1.45,2.36A8.87,8.87,0,0,1,25.51,73.6Zm-.27-.08a4,4,0,0,0-1.2-4,7.46,7.46,0,0,0-1.51-1.13,5.71,5.71,0,0,0-1.59-.67,5.24,5.24,0,0,0-3.39.22,5.85,5.85,0,0,0-2.7,2.55,4.05,4.05,0,0,0,.16,4,4.61,4.61,0,0,0,3.43,1.88,10.86,10.86,0,0,0,3.69-.16,4.55,4.55,0,0,0,1.9-.91A3.64,3.64,0,0,0,25.24,73.52Z"/><path d="M42.31,11.45a4.92,4.92,0,0,1-1.17,2.17,4.86,4.86,0,0,1-2,1.41,4.86,4.86,0,0,1,1.17-2.17A4.92,4.92,0,0,1,42.31,11.45Z" fill="#60439a"/><path d="M41.29,9.21a7,7,0,0,1-1.5,2.53,6.87,6.87,0,0,1-2.35,1.78A6.87,6.87,0,0,1,38.94,11,7,7,0,0,1,41.29,9.21Z" fill="#60439a"/><path d="M40.31,7.67a10.41,10.41,0,0,1-2,3A10.29,10.29,0,0,1,35.55,13a10.29,10.29,0,0,1,2-3A10.41,10.41,0,0,1,40.31,7.67Z" fill="#60439a"/><path d="M20.41,73.6a4.92,4.92,0,0,1-1.17,2.17,4.86,4.86,0,0,1-2,1.41A4.86,4.86,0,0,1,18.39,75,4.92,4.92,0,0,1,20.41,73.6Z" fill="#60439a"/><path d="M19.38,71.36a7,7,0,0,1-1.5,2.53,6.87,6.87,0,0,1-2.35,1.78A6.87,6.87,0,0,1,17,73.14,7,7,0,0,1,19.38,71.36Z" fill="#60439a"/><path d="M19.13,68.77a10.41,10.41,0,0,1-2,3,10.29,10.29,0,0,1-2.8,2.29,10.29,10.29,0,0,1,2-3A10.41,10.41,0,0,1,19.13,68.77Z" fill="#60439a"/></g></svg>